<svg xmlns="http://www.w3.org/2000/svg" width="36" height="36" viewBox="0 0 50 36" fill="none">
    <path fill-rule="evenodd" clip-rule="evenodd" d="M7.72961 13.7736C7.72919 13.1437 7.89287 12.5148 8.21452 11.9527L8.21558 11.951L13.2358 3.23147C14.3877 1.23181 16.5154 0 18.8192 0L30.1631 0.00382221C30.665 0.00382221 31.0616 0.452083 30.9771 0.970842C30.9113 1.3777 30.5303 1.65927 30.1191 1.65905L18.8188 1.65566C17.1049 1.65566 15.5223 2.57171 14.6653 4.05919L9.64532 12.7789L9.6466 12.777C9.46915 13.0866 9.38064 13.4304 9.38021 13.7736C9.38064 14.1159 9.46745 14.4573 9.64278 14.7639L9.64109 14.7616L14.3384 22.9197C14.3955 23.0191 14.3242 23.1431 14.2098 23.1431H12.901C12.6886 23.1431 12.4923 23.0295 12.3862 22.8449L8.21156 15.5891L8.21029 15.5866C7.8897 15.0251 7.72919 14.3989 7.72961 13.7736ZM9.12833 25.6319L9.12938 25.6336C9.45421 26.1942 9.91519 26.6508 10.4596 26.9652C10.9989 27.2782 11.6202 27.4521 12.2654 27.4547L12.2686 27.4545L20.622 27.4568C20.8341 27.4568 21.0304 27.3434 21.1365 27.1589L21.791 26.0224C21.8482 25.9233 21.7766 25.799 21.6625 25.799H12.2684L12.2713 25.7988C11.9186 25.7978 11.5808 25.7028 11.2846 25.5319C10.9886 25.3599 10.7357 25.1113 10.5572 24.8021L10.5579 24.8042L5.53788 16.0849C4.68177 14.5968 4.68177 12.764 5.53872 11.2757L11.1923 1.46363C11.3979 1.10689 11.3449 0.635063 11.0265 0.374303C10.6207 0.0417702 10.0355 0.161745 9.78454 0.59769L4.10919 10.4477C2.95727 12.4485 2.95727 14.9121 4.10813 16.9124L9.12833 25.6319ZM33.2493 22.2265C33.2497 22.8563 33.0858 23.4853 32.7642 24.0472L32.7631 24.0491L27.7429 32.7686C26.591 34.7683 24.4633 36.0001 22.1597 36.0001L10.8156 35.9965C10.3137 35.9965 9.91731 35.548 10.0016 35.0295C10.0674 34.6224 10.4484 34.3408 10.8594 34.341L22.1601 34.3446C23.8736 34.3444 25.4564 33.4282 26.3134 31.9409L31.3336 23.2214L31.3323 23.2231C31.5095 22.9135 31.5983 22.5695 31.5987 22.2265C31.5983 21.884 31.5112 21.5428 31.3359 21.2361L26.6403 13.0804C26.5832 12.981 26.6547 12.8568 26.7689 12.8568L28.0779 12.857C28.2901 12.857 28.4866 12.9706 28.5925 13.1549L32.7669 20.4108L32.7686 20.4135C33.0892 20.9747 33.2497 21.6014 33.2493 22.2265ZM21.4045 31.6838L21.4022 31.6836H11.362C9.0592 31.6829 6.93152 30.4511 5.7796 28.4502L0.110813 18.5967C-0.13143 18.1761 0.0362768 17.6316 0.489212 17.4267C0.882645 17.2488 1.34829 17.4348 1.56406 17.81L7.20955 27.6229C8.0663 29.1112 9.64913 30.0277 11.362 30.0281H21.4022L21.4003 30.0279C21.756 30.0271 22.0978 29.9321 22.394 29.761C22.6896 29.5894 22.9405 29.3431 23.118 29.0375L23.1165 29.0403L27.8136 20.882C27.8707 20.7824 28.0137 20.7824 28.071 20.882L28.7251 22.0182C28.8312 22.203 28.8312 22.4302 28.7251 22.6145L24.5462 29.8678L24.5448 29.8706C24.2201 30.4297 23.7594 30.8822 23.2192 31.1943C22.6754 31.5096 22.0508 31.6819 21.4045 31.6838ZM40.8679 17.4051L35.1993 7.55162C34.0472 5.55069 31.9195 4.31866 29.6167 4.31824H19.5744C18.9279 4.31994 18.3033 4.49215 17.7595 4.80748C17.2193 5.11942 16.7586 5.57214 16.4337 6.13103L16.4325 6.134L12.2536 13.3873C12.1473 13.5716 12.1473 13.799 12.2536 13.9833L12.9079 15.1198C12.965 15.2192 13.108 15.2192 13.1651 15.1198L17.8622 6.96151L17.8609 6.96427C18.0382 6.65871 18.2891 6.41239 18.5847 6.24081C18.8811 6.06966 19.2225 5.97474 19.5784 5.97389L19.5763 5.97368H29.6165C31.3296 5.97411 32.9124 6.89038 33.7691 8.37892L39.4146 18.192C39.6302 18.567 40.096 18.7528 40.4897 18.5749C40.9426 18.3702 41.1101 17.8257 40.8679 17.4051ZM31.8488 10.3617L31.8496 10.3637L36.87 19.0832C38.0211 21.0835 38.0209 23.5471 36.8688 25.5478L31.1938 35.3977C30.9427 35.8336 30.3574 35.9538 29.9515 35.6213C29.6332 35.3603 29.5803 34.8887 29.7859 34.5317L35.4394 24.7199C36.2962 23.2314 36.2964 21.3986 35.4403 19.9107L30.4212 11.1933C30.2422 10.8847 29.9896 10.6355 29.6936 10.4637C29.3975 10.2927 29.0596 10.1978 28.7068 10.1965H19.3159C19.2013 10.1965 19.13 10.0723 19.1871 9.97315L19.8414 8.83668C19.9477 8.65215 20.144 8.53855 20.3564 8.53855L28.7098 8.54088H28.7127C29.358 8.54343 29.979 8.71713 30.5188 9.03034C31.063 9.34482 31.5242 9.80136 31.8488 10.3617Z" fill="#c9b7ff" />
</svg>