<svg xmlns="http://www.w3.org/2000/svg" fill="none" viewBox="0 0 93 146" height="146" width="93">
    <path fill="#00AEEF" d="M32.41 15.4L33.29 18.09C38.15 16.66 42.66 15.59 46.72 14.77C45.54 13.29 44.37 11.97 43.26 10.79L42.41 11.46L41.28 11.55L36.06 9.19999L34.67 7.23999L32.67 6.62999L30.8 5.23999L29.28 5.62999L29.23 5.66999L30.57 9.75999L32.85 11.37L33.85 13.28L33.55 15.15L32.42 15.38V15.4H32.41Z" />
    <path fill="#00AEEF" d="M44.1301 53.8601L44.3301 55.9101C44.4901 55.8501 44.6401 55.8001 44.8101 55.7401L39.2001 38.6001C33.8701 40.2101 29.3401 41.7101 25.4701 43.1001L25.3201 43.2301L25.2201 43.1901C23.7901 43.7101 22.4401 44.2101 21.1901 44.6901V44.7201C22.2701 47.4301 23.3801 49.9301 24.5001 52.2301L26.6101 53.0401L28.4101 53.1001C28.4101 53.1001 36.2401 49.3301 36.4201 49.3301C36.6001 49.3301 40.4801 51.4801 40.4801 51.4801L42.3901 52.2301L44.1301 53.8501V53.8601Z" />
    <path fill="#00AEEF" d="M53.66 7.39998L53.7 5.33998L55.7899 5.27998L54.72 4.01998C54.08 3.76998 53.4399 3.52998 52.7899 3.30998L53.1799 4.17998L52.08 5.39998L50.75 4.98998L50.69 3.18998L50.02 2.46998C46.91 1.66998 43.6499 1.22998 40.2899 1.22998H40.21C42.84 2.01998 47.31 3.61998 52.08 6.41998C52.6 6.71998 53.13 7.04998 53.67 7.39998H53.66Z" />
    <path fill="#00AEEF" d="M70.24 18.45L69.17 18.42L67.86 16.8L66.32 16.54L64.78 17.29L64.37 16.33L63.62 15.75L63.4 15.78C64.44 16.98 65.42 18.27 66.35 19.67L67.16 19.61L69.45 19.99L70.23 18.45H70.24Z" />
    <path fill="#00AEEF" d="M60.0701 56.4C60.2301 56.36 60.4001 56.3199 60.5601 56.2799C61.6001 55.9799 62.6301 55.56 63.6501 55.13C64.4601 54.79 65.2701 54.43 66.1201 54.11V52.9799L66.2901 50.95C64.3901 51.28 62.3201 51.6899 60.1001 52.1899C60.1401 53.6199 60.1301 55.0299 60.0801 56.4199V56.4H60.0701Z" />
    <path fill="#00AEEF" d="M31 75.1099C30.97 75.3399 30.92 75.5699 30.85 75.7899C31.68 75.3699 32.85 74.8099 34.04 74.2899C34.74 73.9899 35.38 73.7199 35.94 73.4899L33.97 72.6599L33.45 71.4399L30.32 67.6099L26.08 66.5699L24.46 65.3499L23.77 65.1399C23.67 65.1899 23.59 65.2399 23.51 65.2799C23.68 65.5299 23.9 65.7499 24.18 65.9399C25.75 67.0299 28.13 67.3499 28.89 69.3999C29.11 69.9899 29.04 70.6599 28.8 71.2299C30.31 71.8199 31.22 73.1899 30.99 75.0999L31 75.1099Z" />
    <path fill="#00AEEF" d="M64.03 42.6699L62.81 41.1899L60.34 39.6499L58.59 39.1599C59.42 43.3599 59.92 47.4399 60.07 51.3799C62.32 50.8799 64.42 50.4699 66.34 50.1399L66.75 45.0499L66.4 43.7399L64.02 42.6699H64.03Z" />
    <path fill="#00AEEF" d="M51.28 34.3899L51.3501 30.05L50.89 24.68L52.09 22.76C50.59 20.05 48.94 17.6 47.28 15.45C43.05 16.29 38.43 17.39 33.54 18.82L39.7 37.63C44 36.34 47.84 35.28 51.29 34.38H51.28V34.3899Z" />
    <path fill="#00AEEF" d="M20.19 44.2301C19.71 42.9201 19.3 41.6101 18.96 40.3101L18.05 40.6601L16.66 41.6601L16.31 42.6601L15.4 43.4001L14.66 44.4601L14.93 46.4101C16.48 45.7301 18.22 45.0001 20.2 44.2301H20.19Z" />
    <path fill="#00AEEF" d="M7.88 47.3399C6.86 47.0499 5.86001 46.7599 5.86001 46.7599L4.38 47.5399L1.51001 44.4199C1.83001 47.3799 2.47001 50.2799 3.43001 53.0599C4.05001 52.4399 5.47001 51.2399 8.54001 49.5399C8.29001 48.7999 8.07001 48.0699 7.87001 47.3399H7.88Z" />
    <path fill="#00AEEF" d="M45.79 56.2299L46.86 59.4899C47.05 59.3799 47.23 59.2699 47.43 59.1699C49.46 58.0799 51.7301 57.4699 53.9901 57.1799C55.7501 56.9299 57.56 56.8899 59.29 56.5699C59.35 55.1899 59.3501 53.7799 59.3201 52.3599C55.2001 53.3099 50.62 54.5699 45.79 56.2399V56.2299Z" />
    <path fill="#00AEEF" d="M59.3001 51.56C59.1601 47.57 58.6501 43.42 57.8001 39.15L55.3301 39.54L51.2701 35.54V35.21C47.9001 36.09 44.1301 37.13 39.9401 38.39L45.5401 55.5C50.4601 53.8 55.1201 52.53 59.3001 51.57V51.56Z" />
    <path fill="#00AEEF" d="M32.91 1.93994C32.42 2.02994 31.94 2.14994 31.45 2.26994C31.94 2.16994 32.45 2.06994 32.97 1.97994L32.91 1.93994Z" />
    <path fill="#00AEEF" d="M44.4 56.71L44.47 57.46L43.19 58.79L41.1 62.39L41.85 64.38C42.99 62.63 44.42 61.08 46.16 59.91L45.04 56.48C44.82 56.56 44.61 56.63 44.39 56.71H44.4Z" />
    <path fill="#00AEEF" d="M29.84 4.40991L32.28 4.27991L34.36 2.93991C34.08 2.73991 33.83 2.55991 33.61 2.40991L31.7 3.28991L28.77 4.24991L28.98 4.87991L29.85 4.39991L29.84 4.40991Z" />
    <path fill="#00AEEF" d="M29.04 7.58L28.6 6.25L27.84 6.94L29.04 7.58Z" />
    <path fill="#00AEEF" d="M20.47 45.01V44.98C18.41 45.78 16.62 46.53 15.04 47.24L15.12 47.83L17.38 50.67L19.24 51.71L20.63 52.93L21.91 53.28L23.66 52.29C22.58 50.05 21.5 47.63 20.47 45.01Z" />
    <path fill="#00AEEF" d="M27.8301 19.8301C29.3401 19.3101 30.9101 18.8001 32.5501 18.3101L31.7401 15.8301L31.1901 16.2501L30.9701 17.6001L28.5301 19.0801L27.8201 19.8301H27.8301Z" />
    <path fill="#00AEEF" d="M34.35 74.9999C32.73 75.6999 31.14 76.5099 30.42 76.8799C30.38 76.9699 30.33 77.0499 30.28 77.1299C30.66 77.4999 31.05 77.8599 31.43 78.2199C33.15 78.6199 34.9 78.8999 36.68 79.0699C37.14 77.5099 37.59 75.9399 38.01 74.3599L36.95 73.9199C36.26 74.1999 35.37 74.5599 34.34 74.9999H34.35Z" />
    <path fill="#00AEEF" d="M10.69 48.4001C10.4 48.1601 10.1 47.9301 10.04 47.9301C9.99001 47.9301 9.44001 47.7801 8.76001 47.5901C8.91001 48.1101 9.07001 48.6301 9.24001 49.1601C9.69001 48.9201 10.18 48.6701 10.69 48.4101V48.4001Z" />
    <path fill="#00AEEF" d="M26.08 42.05C29.76 40.75 34.02 39.3501 38.96 37.8601L32.8 19.05C30.82 19.64 28.93 20.26 27.13 20.89L27.54 22.34C27.54 22.34 28.67 22.43 28.8 22.43C28.93 22.43 28.54 25.17 28.54 25.17L26.41 27.17L26.37 29.48L25.28 31.4401L25.15 33.7001L24.41 35.14L23.58 36.4901L23.28 37.71L24.06 39.28L25.84 41.1101L26.08 42.07V42.05Z" />
    <path fill="#00AEEF" d="M69.84 62.98C69.84 62.98 69.91 63.01 69.94 63.02C70.42 63.23 70.84 63.57 71.21 63.95C71.51 63.56 71.81 63.17 72.1 62.77L70.02 62.83L69.84 62.98Z" />
    <path fill="#00AEEF" d="M28.25 5.17009L28 4.39009L26.77 4.34009L24.39 5.21009L22.44 6.55009C22.22 7.10009 21.95 7.81009 21.66 8.66009L24.32 5.85009L28.25 5.17009Z" />
    <path fill="#00AEEF" d="M16.19 9.6001L15.86 9.8701L16.03 9.8101C16.08 9.7401 16.14 9.6601 16.18 9.6001H16.19Z" />
    <path fill="#00AEEF" d="M78.53 32.72L76.79 33.89L74.73 38.21L75.4 41.46L75.14 47.2L74.65 48.36L74.61 48.98C76.47 48.79 77.77 48.71 78.34 48.68C78.95 45.92 79.28 43.08 79.28 40.23C79.28 37.66 79.01 35.15 78.53 32.71V32.72Z" />
    <path fill="#00AEEF" d="M35.29 1.6401L34.42 2.0401C34.74 2.2701 35.09 2.5201 35.5 2.8201L36.32 2.9301L38.1 2.5401L40.8 3.5401L42.45 3.2801L46.28 5.0601L45.28 6.6301L45.72 7.8901L45.28 9.2001L43.87 10.3101C45.06 11.5701 46.31 13.0001 47.57 14.6001C48.66 14.3901 49.71 14.2001 50.72 14.0201L50.78 13.6301L50.14 12.0601L50.43 11.5401L50.6 9.5701L52.4 9.3401L53.57 8.2801C52.92 7.8601 52.29 7.4701 51.67 7.1001C44.32 2.7801 37.67 1.3601 37.6 1.3501C37.59 1.3501 37.58 1.3501 37.57 1.3501C36.36 1.4301 35.16 1.5701 33.97 1.7601L34.06 1.8201C34.46 1.7601 34.84 1.7001 35.26 1.6501H35.29V1.6401Z" />
    <path fill="#00AEEF" d="M71.1 56.8099L70.33 56.9799L68.83 56.6799C68.67 57.1599 68.45 57.5899 68.23 57.8699C68.07 58.0899 67.91 58.3099 67.74 58.5099C68.32 58.4299 68.9 58.3399 69.46 58.2099C69.88 58.1299 70.3 57.9399 70.74 57.8499C70.82 57.6599 70.95 57.3099 71.11 56.8099H71.1Z" />
    <path fill="#00AEEF" d="M22.9201 41.4L22.2201 40.01L20.5201 39.71L19.6801 40.03C20.0201 41.34 20.4201 42.65 20.9101 43.96C21.9201 43.57 23.0001 43.17 24.1201 42.76L24.0001 42.71L22.9101 41.4H22.9201Z" />
    <path fill="#00AEEF" d="M3.73999 53.8801C4.50999 55.9401 5.45999 57.9201 6.56999 59.8301C6.71999 59.6001 6.89999 59.3901 7.10999 59.2101C7.13999 59.1801 7.16999 59.1701 7.19999 59.1501C7.22999 58.9301 7.26999 58.7201 7.31999 58.5001C7.72999 56.9301 9.37999 55.7401 10.95 55.8601C10.56 54.8801 9.50999 52.2501 8.81999 50.3101C5.24999 52.3101 4.03999 53.5501 3.74999 53.8801H3.73999Z" />
    <path fill="#00AEEF" d="M74.33 53.64L73.31 54.8L72.01 56.54C71.84 57.1 71.68 57.53 71.57 57.83H71.58C72.18 58 72.38 58.73 72.3 59.26C72.15 60.46 71.36 61.45 70.56 62.29C70.54 62.31 70.51 62.33 70.49 62.36L72.42 62.31C75.1 58.41 77.04 54.04 78.16 49.46C77.5 49.5 76.27 49.58 74.57 49.76L74.34 53.63H74.33V53.64Z" />
    <path fill="#00AEEF" d="M19.8301 10.5901L20.4001 9.99006C20.7301 8.96006 21.0401 8.06006 21.3101 7.32006L20.4901 7.88006L19.4101 7.31006C19.1301 7.49006 18.8401 7.66006 18.5601 7.85006C18.3601 8.07006 17.9101 8.61006 17.3101 9.39006L17.7901 9.24006L19.8401 10.5901H19.8301Z" />
    <path fill="#00AEEF" d="M52.08 19.84L50.17 17.58L50.61 14.84C49.8 14.98 48.98 15.13 48.13 15.29C49.68 17.31 51.21 19.6 52.61 22.1L54.69 21.58L57.91 19.84L60.23 21.35L61.51 21.26L62.99 19.9L65.46 19.73C64.43 18.21 63.32 16.81 62.16 15.54L61.51 15.09L60.09 14.92L60.76 16.75L59.69 16.95L59.34 15.96L57.83 14.8L55.86 16.19L54.29 19.56L52.09 19.85L52.08 19.84Z" />
    <path fill="#00AEEF" d="M20.01 54.94L18.14 53.29L12.13 51.16L11.3 49C10.65 49.32 10.05 49.64 9.5 49.93C10.36 52.33 11.81 55.93 11.82 55.96C11.84 56 11.84 56.04 11.84 56.09C12.07 56.2 12.3 56.34 12.51 56.52C13.53 57.45 13.87 58.91 14.23 60.18C14.7 62.01 15.22 63.86 16.06 65.54C16.14 65.67 16.25 65.91 16.38 65.93C16.47 65.93 16.59 65.82 16.55 65.73C16.55 65.67 16.47 65.46 16.46 65.39C16.01 63.63 15.6 61.81 15.9 59.98C16.27 57.85 17.62 55.66 20.07 55.98C20.75 56.08 21.26 56.33 21.66 56.68L21.52 55.39L20 54.95L20.01 54.94Z" />
    <path fill="white" d="M49.3301 90.7698L50.3501 91.5798L51.0901 87.6398L49.7901 87.3298L49.3301 90.7698Z" />
    <path fill="white" d="M78.2901 67.5699H78.2601C78.1101 67.5299 78.0201 67.3899 78.0301 67.2499C77.8101 66.9999 77.5701 66.7599 77.3101 66.5499C76.3401 65.7399 75.1401 65.2099 73.8901 64.9799C73.7101 64.9499 73.7401 64.6699 73.9301 64.6899C75.5001 64.8899 77.0001 65.6199 78.1501 66.7099C78.4801 65.4499 78.6401 64.1999 78.6301 62.9899C78.6001 60.8399 77.9501 58.7799 76.7801 57.1299C75.5001 59.9099 73.9001 62.5399 72.0001 64.9699C72.1101 65.1499 72.2201 65.3299 72.3301 65.5399C73.9401 65.6899 75.1801 66.8799 75.6301 68.5199C75.7101 68.7799 75.7801 69.0399 75.8301 69.2999C75.8701 69.2999 75.9101 69.3199 75.9501 69.3399C76.3101 69.5499 76.6001 69.7499 77.0201 70.1299C78.1501 71.1399 78.5501 72.7299 78.2901 75.5699C78.4601 75.3799 78.6201 75.1899 78.7601 74.9699C80.1701 72.7399 79.8901 69.6599 78.2901 67.5799V67.5699Z" />
    <path fill="white" d="M41.5701 79.5798C41.4401 80.9598 41.3701 81.9098 41.3501 82.1898C41.7901 83.0498 42.4401 83.9298 42.8901 84.5098C42.9601 83.6098 43.1101 82.7398 43.2201 81.8298C43.2201 81.7698 43.2601 81.7198 43.3001 81.6898C43.3401 81.3098 43.3801 80.8598 43.4401 80.3398C43.4401 80.3198 43.4301 80.3098 43.4301 80.2998L43.5201 79.4598L43.8301 76.4598C43.9701 75.1798 44.1201 73.8998 44.2901 72.6198C44.4601 71.3398 44.6401 70.0698 44.8501 68.7898C45.0301 67.7098 45.2201 66.6398 45.4401 65.5698L43.4801 66.2798C42.4501 71.1998 41.8701 76.4898 41.5801 79.5798H41.5701Z" />
    <path fill="#A8FC06" d="M35.2901 1.63989C34.8801 1.68989 34.4901 1.74989 34.0901 1.80989C34.1901 1.87989 34.3101 1.95989 34.4201 2.03989L35.2901 1.63989Z" />
    <path fill="#A8FC06" d="M21.31 7.31985C21.53 6.72985 21.72 6.23985 21.88 5.84985C21.04 6.29985 20.22 6.79985 19.41 7.30985L20.49 7.87985L21.31 7.31985Z" />
    <path fill="#A8FC06" d="M31.7 3.29998L33.61 2.41998C33.35 2.23998 33.13 2.08998 32.97 1.97998C32.45 2.06998 31.94 2.15998 31.45 2.26998C31.42 2.26998 31.38 2.26998 31.35 2.28998C31.01 2.35998 30.69 2.44998 30.36 2.52998C29.7 2.69998 29.04 2.88998 28.39 3.09998L28.77 4.26998L31.7 3.30998V3.29998Z" />
    <path fill="#A8FC06" d="M26.7601 4.33984L27.9901 4.38984L27.6501 3.33984C26.0401 3.88984 24.4701 4.54984 22.9601 5.29984C22.8801 5.48984 22.6901 5.91984 22.4401 6.54984L24.3901 5.20984L26.7701 4.33984H26.7601Z" />
    <path fill="#A8FC06" d="M66.7601 45.0498L66.3501 50.1398C68.6701 49.7398 70.7401 49.4398 72.4801 49.2198C72.8201 44.7798 72.5701 38.7498 70.6501 31.2998C67.4601 31.6698 63.1101 32.3998 57.3501 33.7198C57.8301 35.5498 58.2401 37.3698 58.6001 39.1598L60.3501 39.6498L62.8201 41.1898L64.0401 42.6698L66.4201 43.7398L66.7701 45.0498H66.7601Z" />
    <path fill="#A8FC06" d="M62.99 19.9L61.51 21.26L60.23 21.35L57.91 19.84L54.69 21.58L52.61 22.1C54.43 25.34 56.03 28.96 57.14 32.95C62.89 31.62 67.23 30.89 70.45 30.51C69.32 26.36 67.55 22.8 65.46 19.72L62.99 19.89V19.9Z" />
    <path fill="#A8FC06" d="M78.5301 32.7199C78.4201 32.1499 78.3101 31.5899 78.1701 31.0299C77.3601 30.9299 75.3301 30.7999 71.4301 31.2199C73.3401 38.6699 73.6201 44.6799 73.3001 49.1299C73.7701 49.0799 74.1901 49.0299 74.6101 48.9899L74.6501 48.3699L75.1401 47.2099L75.4001 41.4699L74.7301 38.2199L76.7901 33.8999L78.5301 32.7299V32.7199Z" />
    <path fill="#A8FC06" d="M66.28 50.94L66.12 52.97V54.1C66.35 54.01 66.56 53.92 66.8 53.84C67.28 53.71 67.82 53.52 68.36 53.76C69.27 54.24 69.19 55.59 68.82 56.67L70.32 56.97L71.09 56.8C71.51 55.51 72.1 53.22 72.41 50C70.67 50.22 68.6 50.52 66.28 50.92V50.94Z" />
    <path fill="#A8FC06" d="M50.6301 9.56979L50.4601 11.5398L50.17 12.0598L50.81 13.6298L50.75 14.0198C54.06 13.4498 56.9801 13.0598 59.4601 12.7998C57.5101 11.0198 55.51 9.51979 53.61 8.27979L52.44 9.33979L50.64 9.56979H50.6301Z" />
    <path fill="#A8FC06" d="M72.01 56.5498L73.31 54.8098L74.33 53.6498L74.56 49.7798C74.14 49.8198 73.71 49.8698 73.24 49.9198C72.97 52.9098 72.44 55.1398 72.01 56.5498Z" />
    <path fill="#A8FC06" d="M51.28 34.3898C53.08 33.9198 54.78 33.4998 56.37 33.1298C55.31 29.3398 53.8 25.8798 52.08 22.7698L50.88 24.6898L51.34 30.0598L51.27 34.3998H51.28V34.3898Z" />
    <path fill="#A8FC06" d="M67.42 12.2698C63.79 8.74978 59.49 5.92978 54.72 4.01978L55.79 5.27978L53.7 5.33978L53.66 7.39978C55.87 8.80978 58.22 10.5598 60.48 12.6998C63.73 12.3898 66.1 12.2898 67.42 12.2698Z" />
    <path fill="#A8FC06" d="M54.28 19.55L55.85 16.18L57.82 14.79L59.33 15.95L59.68 16.94L60.75 16.74L60.08 14.91L61.5 15.08L62.15 15.53C61.5 14.82 60.85 14.13 60.18 13.49C57.42 13.77 54.19 14.21 50.6 14.84L50.16 17.58L52.07 19.84L54.27 19.55H54.28Z" />
    <path fill="#A8FC06" d="M50.74 4.98997L52.07 5.39997L53.17 4.17997L52.78 3.30997C51.87 2.99997 50.94 2.71997 50 2.46997L50.67 3.18997L50.73 4.98997H50.74Z" />
    <path fill="#A8FC06" d="M51.27 35.1999V35.5299L55.33 39.5299L57.8 39.1399C57.45 37.3999 57.05 35.6499 56.59 33.8799C54.94 34.2699 53.16 34.6999 51.27 35.1899V35.1999Z" />
    <path fill="#A8FC06" d="M63.4001 15.7798L63.6201 15.7498L64.3701 16.3298L64.7801 17.2898L66.3201 16.5398L67.8601 16.7998L69.1701 18.4198L70.2401 18.4498L69.4601 19.9898L67.1701 19.6098L66.3601 19.6698C68.4001 22.7498 70.1301 26.2998 71.2301 30.4298C74.8701 30.0398 76.9401 30.1098 77.9701 30.2198C76.2201 23.6498 72.8001 17.7598 68.1901 13.0398C66.5801 13.0198 64.1901 13.1198 61.2001 13.3998C61.9501 14.1498 62.6901 14.9498 63.4101 15.7898H63.4001V15.7798Z" />
    <path fill="#A8FC06" d="M34.36 2.94995L32.28 4.28995L29.84 4.41995L28.97 4.89995L29.23 5.67995L29.28 5.63995L30.8 5.24995L32.67 6.63995L34.67 7.24995L36.06 9.20995L41.28 11.56L42.41 11.47L43.26 10.8C43 10.52 42.74 10.25 42.48 9.98995C39.21 6.64995 36.18 4.27995 34.35 2.95995L34.36 2.94995Z" />
    <path fill="#A8FC06" d="M42.46 3.27979L40.81 3.53979L38.11 2.53979L36.33 2.9298L35.51 2.81979C37.4 4.22979 40.13 6.4498 43.06 9.4298C43.33 9.7098 43.61 10.0098 43.9 10.2998L45.31 9.18979L45.75 7.8798L45.31 6.61979L46.31 5.0498L42.48 3.26979H42.46V3.27979Z" />
    <path fill="#A8FC06" d="M32.8401 11.38L30.5701 9.76001L32.4101 15.4L33.5401 15.16L33.8401 13.29L32.8401 11.38Z" />
    <path fill="#A8FC06" d="M8.23999 28.62C10.74 27.17 13.88 25.51 17.66 23.82C17.84 21.53 18.15 19.42 18.5 17.56C19.05 14.62 19.75 12.04 20.41 9.98999L19.84 10.59L17.79 9.23999L17.31 9.38999C15.76 11.4 13.18 15.13 11.03 20.05C9.96999 22.47 8.94999 25.37 8.23999 28.62Z" />
    <path fill="#A8FC06" d="M23.66 52.29L21.91 53.28L20.63 52.93L19.24 51.71L17.38 50.67L15.12 47.83L15.04 47.24C13.63 47.87 12.39 48.45 11.3 49L12.13 51.16L18.14 53.29L20.01 54.94L21.53 55.38L21.67 56.67C23.2 58.01 22.95 60.9 22.95 62.87C22.95 63.47 22.99 64.06 23.17 64.59C23.87 64.2 25.61 63.27 28.97 61.82C27.25 59.14 25.44 55.97 23.66 52.3V52.29Z" />
    <path fill="#A8FC06" d="M25.46 43.0999L25.22 43.1899L25.32 43.2299L25.47 43.0999H25.46Z" />
    <path fill="#A8FC06" d="M44.33 55.9199L44.13 53.8699L42.39 52.2499L40.48 51.4999C40.48 51.4999 36.59 49.3499 36.42 49.3499C36.25 49.3499 28.41 53.1199 28.41 53.1199L26.61 53.0599L24.5 52.2499C26.25 55.8199 28.02 58.9099 29.7 61.5199C33.01 60.1099 37.75 58.2499 44.33 55.9399V55.9199Z" />
    <path fill="#A8FC06" d="M24.4001 35.1399L25.1401 33.6999L25.2701 31.4399L26.3601 29.4799L26.4001 27.1699L28.5301 25.1699C28.5301 25.1699 28.9201 22.4299 28.7901 22.4299C28.6601 22.4299 27.5301 22.3399 27.5301 22.3399L27.1201 20.8899C23.9101 22.0199 21.0001 23.1799 18.3901 24.3399C18.0501 29.0499 18.2501 34.4899 19.6801 40.0299L20.5201 39.7099L22.2201 40.0099L22.9201 41.3999L24.0101 42.7099L24.1301 42.7599C24.7601 42.5299 25.4101 42.2999 26.0801 42.0599L25.8401 41.0999L24.0601 39.2699L23.2801 37.6999L23.5801 36.4799L24.4101 35.1299H24.4001V35.1399Z" />
    <path fill="#A8FC06" d="M14.6501 44.4599L15.3901 43.4L16.3001 42.66L16.6501 41.66L18.0401 40.66L18.9501 40.31C17.5201 34.81 17.2701 29.41 17.5801 24.7C13.6901 26.46 10.5001 28.1799 8.02006 29.65C7.00006 34.93 6.87007 41.06 8.75007 47.59C9.43007 47.78 9.99007 47.93 10.0301 47.93C10.0901 47.93 10.3901 48.17 10.6801 48.4C11.8901 47.79 13.2901 47.12 14.9101 46.41L14.6401 44.4599H14.6501Z" />
    <path fill="#A8FC06" d="M21.6601 8.65991C20.8901 10.8699 19.9501 13.9999 19.2501 17.7299C18.9301 19.4499 18.6401 21.3799 18.4601 23.4699C21.2501 22.2499 24.3801 21.0099 27.8201 19.8299L28.5301 19.0799L30.9701 17.5999L31.1901 16.2499L31.7401 15.8299L29.0401 7.56991L27.8401 6.92991L28.6001 6.23991L28.2501 5.15991L24.3201 5.83991L21.6601 8.64991V8.65991Z" />
    <path fill="#A8FC06" d="M30.13 62.17C34.36 68.61 37.86 71.96 38.51 72.56C38.74 71.66 38.99 70.76 39.29 69.88C39.91 67.97 40.76 66.08 41.86 64.38L41.11 62.39L43.2 58.79L44.48 57.46L44.41 56.71C38.04 58.95 33.4 60.78 30.13 62.17Z" />
    <path fill="#A8FC06" d="M29.4 62.48C26.32 63.81 24.58 64.7 23.77 65.14L24.46 65.35L26.08 66.57L30.32 67.61L33.45 71.44L33.97 72.66L35.94 73.49C36.66 73.2 37.24 72.97 37.64 72.82C36.46 71.68 33.21 68.31 29.4 62.48Z" />
    <path fill="#A8FC06" d="M38.02 74.3599C38.11 74.0399 38.2 73.7299 38.28 73.4099C38.03 73.4999 37.58 73.6699 36.97 73.9199L38.03 74.3599H38.02Z" />
    <path fill="#A8FC06" d="M10.33 19.7198C12.23 15.3898 14.45 11.9798 16.04 9.80981L15.87 9.86981C8.87003 15.5098 3.84003 23.5098 2.03003 32.6598C3.04003 31.9098 4.81003 30.6798 7.33003 29.1698C8.05003 25.5698 9.17003 22.3798 10.33 19.7298V19.7198Z" />
    <path fill="#A8FC06" d="M7.14003 30.1799C4.29003 31.9199 2.50003 33.2499 1.82003 33.7799C1.47003 35.8799 1.28003 38.0299 1.28003 40.2299C1.28003 41.6399 1.36003 43.0299 1.51003 44.4099L4.38003 47.5299L5.86003 46.7499C5.86003 46.7499 6.86003 47.0399 7.88003 47.3299C6.18003 41.1199 6.24003 35.2699 7.14003 30.1799Z" />
    <path fill="#06F3F9" d="M40.2801 0.01C18.1001 0.01 0.0600586 18.05 0.0600586 40.23C0.0600586 47.77 2.15006 55.02 6.02006 61.3C6.06006 61.01 6.14006 60.73 6.25006 60.45C6.34006 60.23 6.44006 60.02 6.57006 59.82C5.46006 57.91 4.51006 55.93 3.74006 53.87C4.03006 53.53 5.24006 52.29 8.81006 50.3C9.50006 52.24 10.5501 54.87 10.9401 55.85C11.2501 55.87 11.5501 55.95 11.8401 56.08C11.8401 56.04 11.8401 55.99 11.8201 55.95C11.8001 55.91 10.3501 52.32 9.50006 49.92C10.0501 49.62 10.6501 49.31 11.3001 48.99C12.3901 48.44 13.6301 47.86 15.0401 47.23C16.6301 46.52 18.4201 45.77 20.4601 44.97V45C21.5001 47.62 22.5701 50.04 23.6601 52.28C25.4401 55.96 27.2601 59.12 28.9701 61.8C25.6101 63.25 23.8701 64.18 23.1701 64.57C23.2201 64.72 23.2801 64.86 23.3501 64.99C23.4001 65.08 23.4601 65.17 23.5201 65.26C23.5901 65.22 23.6801 65.17 23.7801 65.12C24.5901 64.68 26.3301 63.79 29.4101 62.46C33.2201 68.29 36.4801 71.66 37.6501 72.8C37.2501 72.95 36.6701 73.18 35.9501 73.47C35.3901 73.7 34.7501 73.96 34.0501 74.27C32.8601 74.78 31.6901 75.35 30.8601 75.77C30.7501 76.15 30.6101 76.51 30.4301 76.86C31.1401 76.49 32.7301 75.69 34.3601 74.98C35.3901 74.53 36.2801 74.17 36.9701 73.9C37.5901 73.66 38.0401 73.48 38.2801 73.39C38.3001 73.3 38.3301 73.21 38.3501 73.12C38.4001 72.93 38.4501 72.73 38.5001 72.54C37.8501 71.94 34.3501 68.59 30.1201 62.15C33.3901 60.76 38.0301 58.94 44.4001 56.69C44.6201 56.61 44.8201 56.54 45.0501 56.46L46.1701 59.89C46.3901 59.74 46.6201 59.6 46.8501 59.47L45.7801 56.21C50.6201 54.54 55.1901 53.28 59.3101 52.33C59.3401 53.75 59.3401 55.16 59.2801 56.54C59.5401 56.49 59.8001 56.44 60.0601 56.37C60.1101 54.98 60.1201 53.57 60.0801 52.14C62.3001 51.64 64.3701 51.24 66.2701 50.9C68.5901 50.49 70.6601 50.19 72.4001 49.98C72.1001 53.2 71.5001 55.49 71.0801 56.78C70.9201 57.28 70.7901 57.63 70.7101 57.82C70.9801 57.76 71.2601 57.75 71.5501 57.82C71.6701 57.52 71.8201 57.09 71.9901 56.53C72.4201 55.12 72.9501 52.89 73.2201 49.9C73.6901 49.85 74.1301 49.8 74.5401 49.76C76.2401 49.58 77.4801 49.5 78.1301 49.46C77.0101 54.04 75.0701 58.4 72.3901 62.31L70.4601 62.36C70.3101 62.52 70.1501 62.67 69.9901 62.82L72.0701 62.76C71.7901 63.16 71.4801 63.55 71.1801 63.94C71.2701 64.04 71.3701 64.14 71.4501 64.24C71.4901 64.29 71.5301 64.35 71.5801 64.41C71.6401 64.49 71.7101 64.58 71.7701 64.66C71.8401 64.76 71.9001 64.85 71.9601 64.95C73.8501 62.52 75.4601 59.89 76.7401 57.11C76.7801 57.03 76.8101 56.96 76.8501 56.88C76.9201 56.73 76.9801 56.57 77.0501 56.42C79.2801 51.34 80.4701 45.82 80.4701 40.22C80.4701 18.04 62.4301 0 40.2501 0H40.2801V0.01ZM18.4601 23.47C18.6401 21.38 18.9301 19.45 19.2501 17.73C19.9501 14 20.8901 10.87 21.6601 8.66C21.9501 7.81 22.2201 7.1 22.4401 6.55C22.6901 5.92 22.8801 5.49 22.9601 5.3C24.4701 4.55 26.0401 3.89 27.6501 3.34L27.9901 4.39L28.2401 5.17L28.5901 6.25L29.0301 7.58L31.7301 15.84L32.5401 18.32C30.9001 18.81 29.3301 19.32 27.8201 19.84C24.3701 21.02 21.2501 22.25 18.4601 23.48V23.47ZM40.2801 1.23C43.6401 1.23 46.9001 1.66 50.0101 2.47C50.9501 2.71 51.8801 3 52.7901 3.31C53.4401 3.53 54.0901 3.77 54.7201 4.02C59.4901 5.93 63.7901 8.75 67.4201 12.27C66.1001 12.3 63.7301 12.39 60.4801 12.7C58.2101 10.56 55.8701 8.81 53.6601 7.4C53.1201 7.06 52.5901 6.73 52.0701 6.42C47.3001 3.62 42.8301 2.03 40.2001 1.23H40.2801ZM51.7001 7.1C52.3201 7.46 52.9501 7.86 53.6001 8.28C55.5101 9.52 57.5001 11.02 59.4501 12.8C56.9701 13.06 54.0401 13.45 50.7401 14.02C49.7201 14.2 48.6701 14.39 47.5901 14.6C46.3301 13 45.0701 11.57 43.8901 10.31C43.6101 10.01 43.3301 9.71 43.0501 9.44C40.1201 6.46 37.3901 4.24 35.5001 2.83C35.1001 2.53 34.7401 2.27 34.4201 2.05C34.3101 1.97 34.1901 1.89 34.0901 1.82L34.0001 1.76C35.1801 1.57 36.3801 1.43 37.6001 1.35C37.6101 1.35 37.6201 1.35 37.6301 1.35C37.7001 1.35 44.3501 2.79 51.7001 7.1ZM15.8701 9.85L16.2001 9.58L16.0501 9.79C14.4601 11.96 12.2401 15.37 10.3401 19.7C9.18006 22.35 8.06006 25.54 7.34006 29.14C4.82006 30.65 3.05006 31.88 2.04006 32.63C3.85006 23.48 8.88006 15.48 15.8801 9.84L15.8701 9.85ZM11.0301 20.05C13.1801 15.13 15.7701 11.4 17.3101 9.39C17.9101 8.6 18.3601 8.07 18.5601 7.85C18.8401 7.66 19.1301 7.49 19.4101 7.31C20.2201 6.8 21.0301 6.31 21.8801 5.85C21.7201 6.24 21.5301 6.73 21.3101 7.32C21.0301 8.06 20.7201 8.96 20.4001 9.99C19.7501 12.04 19.0501 14.62 18.4901 17.56C18.1401 19.42 17.8401 21.53 17.6501 23.82C13.8701 25.51 10.7301 27.17 8.23006 28.62C8.94006 25.38 9.96006 22.48 11.0201 20.05H11.0301ZM32.4101 15.39L30.5701 9.76L29.2301 5.67L28.9701 4.89L28.7601 4.26L28.3801 3.09C29.0301 2.88 29.6901 2.7 30.3501 2.52C30.6801 2.44 31.0001 2.36 31.3401 2.28C31.3701 2.28 31.4101 2.28 31.4401 2.26C31.9201 2.15 32.4101 2.03 32.9001 1.93L32.9601 1.97C33.1301 2.08 33.3501 2.23 33.6001 2.41C33.8201 2.56 34.0701 2.74 34.3501 2.94C36.1901 4.27 39.2101 6.64 42.4801 9.97C42.7301 10.23 43.0001 10.51 43.2601 10.78C44.3701 11.96 45.5401 13.28 46.7201 14.76C42.6601 15.57 38.1501 16.65 33.2901 18.08L32.4101 15.39ZM47.2701 15.45C48.9301 17.6 50.5901 20.05 52.0801 22.76C53.8001 25.87 55.3101 29.33 56.3701 33.12C54.7801 33.49 53.0801 33.91 51.2801 34.38C47.8301 35.27 43.9901 36.34 39.6901 37.63L33.5301 18.82C38.4101 17.39 43.0401 16.29 47.2701 15.45ZM52.6001 22.1C51.2001 19.6 49.6701 17.31 48.1201 15.29C48.9701 15.13 49.7901 14.98 50.6001 14.84C54.1801 14.21 57.4101 13.78 60.1801 13.49C60.8501 14.13 61.5101 14.82 62.1501 15.53C63.3101 16.81 64.4201 18.21 65.4501 19.72C67.5401 22.79 69.3101 26.35 70.4401 30.51C67.2201 30.89 62.8901 31.63 57.1301 32.95C56.0201 28.96 54.4201 25.34 52.6001 22.1ZM66.3501 19.66C65.4301 18.27 64.4401 16.97 63.4001 15.77C62.6801 14.93 61.9401 14.13 61.1901 13.38C64.1901 13.1 66.5701 13 68.1801 13.02C72.7901 17.75 76.2101 23.64 77.9601 30.2C76.9301 30.09 74.8601 30.02 71.2201 30.41C70.1101 26.28 68.3901 22.73 66.3501 19.65V19.66ZM3.43006 53.06C2.46006 50.28 1.82006 47.38 1.51006 44.42C1.36006 43.04 1.28006 41.64 1.28006 40.24C1.28006 38.04 1.47006 35.89 1.82006 33.79C2.50006 33.26 4.29006 31.93 7.14006 30.19C6.24006 35.29 6.17006 41.14 7.88006 47.34C8.08006 48.07 8.30006 48.8 8.55006 49.54C5.48006 51.24 4.05006 52.44 3.44006 53.06H3.43006ZM14.9201 46.42C13.3001 47.13 11.9001 47.79 10.6901 48.41C10.1801 48.67 9.69006 48.92 9.24006 49.16C9.06006 48.63 8.91006 48.11 8.76006 47.59C6.88006 41.07 7.01006 34.93 8.03006 29.65C10.5101 28.18 13.7001 26.46 17.5901 24.7C17.2801 29.41 17.5201 34.81 18.9601 40.31C19.3001 41.61 19.7101 42.93 20.1901 44.23C18.2201 45 16.4801 45.73 14.9201 46.41V46.42ZM19.6901 40.04C18.2601 34.5 18.0601 29.06 18.4001 24.35C21.0101 23.19 23.9201 22.03 27.1301 20.9C28.9301 20.27 30.8101 19.65 32.8001 19.06L38.9601 37.87C34.0201 39.36 29.7701 40.76 26.0801 42.06C25.4101 42.3 24.7601 42.53 24.1301 42.76C23.0101 43.17 21.9301 43.57 20.9201 43.96C20.4401 42.65 20.0301 41.34 19.6901 40.03V40.04ZM44.3301 55.94C37.7501 58.25 33.0101 60.12 29.7001 61.52C28.0301 58.91 26.2501 55.83 24.5001 52.25C23.3801 49.95 22.2601 47.46 21.2001 44.74V44.71C22.4401 44.23 23.7901 43.72 25.2201 43.21L25.4601 43.12C29.3301 41.73 33.8601 40.23 39.1901 38.62L44.8001 55.76C44.6301 55.82 44.4801 55.87 44.3201 55.93H44.3301V55.94ZM45.5501 55.53L39.9501 38.42C44.1401 37.17 47.9001 36.12 51.2801 35.24C53.1701 34.75 54.9401 34.31 56.6001 33.93C57.0601 35.7 57.4601 37.46 57.8101 39.19C58.6601 43.45 59.1701 47.6 59.3101 51.6C55.1301 52.56 50.4701 53.84 45.5501 55.53ZM72.4901 49.26C70.7501 49.47 68.6801 49.77 66.3601 50.18C64.4301 50.52 62.3401 50.92 60.0901 51.42C59.9401 47.48 59.4401 43.39 58.6101 39.2C58.2501 37.4 57.8401 35.59 57.3601 33.76C63.1301 32.44 67.4701 31.71 70.6601 31.34C72.5801 38.79 72.8301 44.83 72.4901 49.26ZM74.6201 49.02C74.2101 49.06 73.7801 49.11 73.3101 49.16C73.6301 44.71 73.3401 38.7 71.4401 31.25C75.3501 30.84 77.3801 30.96 78.1801 31.06C78.3201 31.62 78.4301 32.18 78.5401 32.75C79.0201 35.18 79.2901 37.69 79.2901 40.27C79.2901 43.13 78.9701 45.96 78.3501 48.72C77.7701 48.75 76.4801 48.83 74.6201 49.02Z" />
    <path fill="#06F3F9" d="M32.0101 78.77C32.3801 79.12 32.7401 79.47 33.1101 79.81C34.1701 80 35.2501 80.15 36.3301 80.26C36.4101 79.99 36.4801 79.75 36.5301 79.6C36.5501 79.55 36.5601 79.5 36.5701 79.45C36.6101 79.32 36.6401 79.2 36.6801 79.07C34.9001 78.91 33.1501 78.62 31.4301 78.22C31.6201 78.4 31.8101 78.59 32.0101 78.77Z" />
    <path fill="#7B3758" d="M65.3401 73.7799H65.3601C66.2801 72.5899 66.7601 71.1499 66.8501 69.6699C66.6601 71.1099 66.1001 72.4999 65.3801 73.7499C65.3701 73.7699 65.3501 73.7699 65.3401 73.7799Z" />
    <path fill="#FCEE1F" d="M32.58 141.71C31.51 140.31 30.97 138.61 30.56 136.93C30.49 136.6 30.45 136.27 30.41 135.94C28.98 135.68 27.87 134.87 27.13 133.76C26.24 133.58 25.29 133.56 24.36 133.63C23.4 133.71 22.45 133.88 21.54 134.18C19.71 134.79 18.01 135.81 16.58 137.13C16.53 137.18 16.45 137.17 16.41 137.13C16.36 137.08 16.37 137.01 16.41 136.96C17.82 135.57 19.52 134.46 21.39 133.76C22.33 133.41 23.32 133.2 24.31 133.08C25.11 132.99 25.91 132.97 26.72 133.05C26.61 132.82 26.51 132.58 26.43 132.34C26.27 132.25 26.07 132.17 25.86 132.12C25.63 132.05 25.38 132 25.14 131.96C24.65 131.88 24.15 131.84 23.65 131.83C23.15 131.83 22.65 131.86 22.16 131.95C21.67 132.04 21.18 132.18 20.7 132.34C20.65 132.36 20.59 132.33 20.57 132.27C20.55 132.22 20.57 132.16 20.63 132.14C21.11 131.95 21.6 131.78 22.1 131.66C22.61 131.54 23.13 131.47 23.65 131.45C24.17 131.43 24.69 131.44 25.21 131.49C25.47 131.52 25.73 131.56 25.99 131.61C26.07 131.63 26.16 131.65 26.24 131.68C25.83 129.89 26.12 127.88 27.24 126.35C28.73 124.3 31.43 123.36 33.9 123.56C34.91 123.62 35.85 124.01 36.63 124.61C36.58 123.33 36.27 122.08 35.57 120.91C33.92 118.42 30.33 118.56 27.78 119.39C22.32 121.12 18.13 125.6 15.92 130.8C14.78 133.5 13.32 137.88 14.14 140.75C15.26 144.14 19.64 144.48 22.69 144.71C24.45 144.82 26.22 144.84 27.97 144.7C29.67 144.55 31.47 144.31 33 143.56C33.37 143.38 33.71 143.15 33.99 142.87C33.47 142.62 32.99 142.26 32.59 141.74V141.71H32.58Z" />
    <path fill="#FCEE1F" d="M36.45 126.8C36.63 126.45 36.79 126.15 36.89 125.92C36.92 125.85 36.95 125.79 36.97 125.74V125.7C36.97 125.7 36.9401 125.64 36.9101 125.61C36.8101 125.51 36.7101 125.41 36.6001 125.32C35.8401 124.63 34.8701 124.18 33.8201 124.14C31.5601 123.98 29.1201 124.86 27.7701 126.73C25.6501 129.57 26.78 134.52 30.34 135.34C30.26 134.35 30.29 133.35 30.42 132.36C30.54 131.59 30.7 130.82 31.06 130.11C31.76 128.59 33.7201 127.86 35.2701 128.42C35.3701 128.46 35.4601 128.51 35.5501 128.56C35.7601 128.11 36.0501 127.54 36.4101 126.83L36.43 126.79H36.45V126.8Z" />
    <path fill="#FCEE1F" d="M91.28 133.58C89.06 130.01 83.7 129.4 79.9 130.28C78.67 130.58 77.43 131.06 76.34 131.71C76.16 132.31 75.86 132.86 75.45 133.31C75.04 133.77 74.54 134.14 74.01 134.42C72.94 134.98 71.76 135.19 70.6 135.28C70.55 135.28 70.51 135.25 70.51 135.2C70.51 135.15 70.54 135.11 70.58 135.11C71.15 135.02 71.71 134.9 72.25 134.73C72.79 134.56 73.31 134.33 73.78 134.04C74.25 133.74 74.67 133.37 75 132.95C75.31 132.55 75.52 132.08 75.63 131.6C75.75 129.94 74.88 128.88 73.63 128.22C73.57 128.33 73.52 128.44 73.47 128.55C73.2 129.04 72.91 129.51 72.59 129.96C72.9 129.87 73.2 129.78 73.49 129.65H73.5C73.57 129.61 73.65 129.65 73.68 129.71C73.71 129.77 73.68 129.84 73.63 129.87C72.94 130.35 72.17 130.63 71.37 130.83C70.58 131.03 69.76 131.13 68.95 131.15C68.12 131.16 67.27 131.03 66.5 130.72C66.11 130.57 65.74 130.37 65.4 130.14C65.06 129.9 64.74 129.64 64.48 129.3C64.43 129.24 64.44 129.16 64.5 129.11C64.55 129.07 64.62 129.07 64.67 129.11C64.96 129.35 65.29 129.57 65.63 129.74C65.65 129.74 65.66 129.76 65.68 129.76C65.99 129.31 66.29 128.86 66.57 128.39C66.79 128.03 66.99 127.67 67.18 127.3C66.93 127.33 66.68 127.36 66.42 127.39C66.15 127.93 65.97 128.23 65.95 128.26C65.88 128.37 65.76 128.44 65.63 128.42C65.61 128.42 64.57 128.31 63.43 128.19C63.04 128.36 62.66 128.54 62.3 128.76C61.33 129.42 60.64 130.57 60.82 131.76C60.82 131.79 60.83 131.83 60.84 131.86C60.84 131.86 60.85 131.86 60.85 131.88V131.9C61.03 132.56 61.47 133.17 62.06 133.56C62.11 133.59 62.12 133.65 62.09 133.7C62.06 133.74 62 133.76 61.96 133.74C61.34 133.42 60.83 132.88 60.53 132.22C60.31 132.38 60.09 132.54 59.89 132.71C53.96 137.98 60.16 141.66 65.36 143.23C71.05 145.07 83.37 145.69 88.48 142.4C91.24 140.56 93.09 136.63 91.25 133.57H91.28V133.58Z" />
    <path fill="#EE2524" d="M58.38 126.99C58.38 126.99 59.78 127.16 60.72 127.25C61.16 127.29 62.26 127.4 63.32 127.52C63.58 127.55 63.83 127.57 64.07 127.6C64.41 127.64 64.72 127.67 64.98 127.7L65.25 127.73V127.71C65.25 127.71 65.24 127.66 65.24 127.63C65.22 127.52 65.21 127.41 65.19 127.3V127.28C65.17 127.16 65.16 127.04 65.15 126.92C65.13 126.77 65.12 126.63 65.1 126.48C65.06 125.93 65.04 125.39 65.05 124.84C65.05 123.74 65.17 122.65 65.38 121.56C65.61 120.48 65.96 119.41 66.52 118.44C66.8 117.96 67.12 117.49 67.51 117.08C67.68 116.9 67.87 116.72 68.06 116.56C67.79 116.59 67.52 116.61 67.25 116.66C66.62 116.75 66 116.9 65.38 117.06C64.77 117.24 64.16 117.45 63.57 117.7C62.99 117.96 62.41 118.25 61.9 118.61H61.89C61.81 118.67 61.7 118.65 61.64 118.57C61.58 118.49 61.6 118.38 61.68 118.32C62.22 117.9 62.79 117.57 63.38 117.28C63.97 116.99 64.59 116.73 65.21 116.52C65.28 116.5 65.36 116.48 65.43 116.45C65.83 115.7 66.35 114.46 66.55 112.77C66.87 110 66.28 107.94 66.28 107.92C66.28 107.9 66.27 107.87 66.27 107.85C66.27 107.83 66.22 107.73 66.08 107.57C65.8 107.63 65.53 107.45 65.48 107.17V107.11L65.45 106.99C65.19 106.79 64.86 106.56 64.42 106.28C62.86 105.32 61.39 105.12 60.88 105.08L59.25 108.24C59.19 108.35 59.08 108.42 58.95 108.42C58.83 108.42 58.71 108.35 58.65 108.24L56.94 104.95C56.46 104.89 55 104.73 53.3 104.8C51.14 104.89 47.99 105.19 45.26 106.13C45.11 106.18 44.96 106.24 44.8 106.31C44.53 106.42 44.26 106.56 43.98 106.71C41.66 107.99 39.26 110.62 38.33 114.34C37.24 118.7 38.86 122.18 38.87 122.21C38.91 122.29 38.91 122.38 38.88 122.46C38.84 122.56 38.09 124.72 37.69 125.72C37.65 125.83 37.6 125.93 37.57 126.01C37.53 126.1 37.49 126.2 37.43 126.32C37.32 126.55 37.17 126.83 37.01 127.14L36.97 127.22C36.78 127.58 36.54 128.05 36.32 128.5C36.28 128.58 36.24 128.66 36.21 128.73C36.18 128.79 36.15 128.85 36.13 128.91L36.09 129.01L36.07 129.06C36.07 129.06 36.03 129.14 36.02 129.18C36 129.21 35.99 129.24 35.98 129.28C35.96 129.34 35.93 129.4 35.91 129.45C35.81 129.68 35.75 129.87 35.75 129.95C35.75 129.98 35.76 130.03 35.78 130.09C35.8 130.18 35.85 130.3 35.91 130.43C35.97 130.56 36.06 130.71 36.17 130.87C36.21 130.93 36.25 130.98 36.29 131.04C36.31 131.06 36.32 131.08 36.34 131.1C36.47 131.26 36.62 131.44 36.8 131.61C37.33 132.14 38.12 132.7 39.25 133.19C41.02 133.94 43.07 133.84 44.49 133.55C44.6 133.53 44.72 133.5 44.82 133.48C44.91 133.46 45 133.43 45.08 133.41C45.59 133.27 45.98 133.12 46.16 133C46.64 132.68 47.8 130.15 48.47 128.45C48.52 128.32 48.65 128.23 48.79 128.24C48.81 128.24 51.01 128.32 53.13 128.03C55.26 127.73 58.25 127 58.27 126.99C58.31 126.99 58.35 126.98 58.39 126.99H58.38ZM56.88 114.51C56.77 114.51 56.66 114.47 56.56 114.4L55.72 113.73C55.61 113.64 55.54 113.5 55.53 113.36C55.53 113.22 55.58 113.08 55.68 112.97C56.02 112.64 56.72 111.96 57.35 111.36C56.46 110.53 55.79 109.95 55.46 109.67C55.36 109.58 55.29 109.45 55.29 109.32C55.29 109.18 55.34 109.05 55.44 108.96L56.42 108.03C56.6 107.86 56.89 107.86 57.07 108.03C57.5 108.43 58.22 109.11 58.92 109.79C59.31 109.37 59.67 108.94 59.91 108.65C60 108.54 60.14 108.47 60.29 108.47C60.43 108.47 60.58 108.53 60.68 108.64L61.51 109.55C61.68 109.74 61.69 110.02 61.53 110.21C61.27 110.53 60.87 110.99 60.47 111.43C61.02 112.11 61.48 112.79 61.71 113.13C61.85 113.34 61.8 113.62 61.61 113.77L60.81 114.4C60.72 114.47 60.62 114.5 60.51 114.5H60.45C60.32 114.48 60.21 114.42 60.13 114.32C59.91 114.03 59.5 113.54 58.93 112.93C58.3 113.47 57.56 114.09 57.19 114.4C57.1 114.48 56.98 114.52 56.87 114.52H56.88V114.51Z" />
    <path fill="#EE2524" d="M66.04 121.69C65.83 122.72 65.73 123.78 65.7 124.84C65.69 125.37 65.7 125.9 65.73 126.43C65.73 126.54 65.75 126.65 65.75 126.75C65.75 126.88 65.77 127 65.78 127.13V127.22C65.78 127.22 65.82 127.16 65.84 127.12C65.9 127 65.97 126.85 66.05 126.7C66.27 126.24 66.53 125.68 66.81 125C66.68 125 66.56 125 66.44 125.03C66.32 125.05 66.21 124.96 66.19 124.84V124.82C66.19 124.65 66.19 124.52 66.2 124.38C66.2 124.24 66.22 124.1 66.24 123.96C66.27 123.68 66.31 123.41 66.35 123.14C66.43 122.59 66.53 122.06 66.64 121.52C66.75 120.98 66.9 120.44 67.08 119.91C67.17 119.65 67.27 119.38 67.39 119.12C67.45 118.99 67.51 118.86 67.58 118.74C67.65 118.61 67.71 118.49 67.82 118.35C67.87 118.28 67.94 118.24 68.01 118.23H68.03C68.22 118.2 68.4 118.2 68.59 118.19C68.64 117.89 68.69 117.58 68.72 117.27C68.74 117.09 68.75 116.91 68.76 116.73C68.08 117.29 67.52 117.97 67.1 118.75C66.59 119.66 66.28 120.67 66.06 121.69H66.04Z" />
    <path fill="white" d="M75.2201 68.6399C74.6401 66.8499 73.4501 66.0499 72.0001 66.0499C71.3101 66.0499 70.5701 66.2299 69.8101 66.5799C69.6601 66.6399 69.5101 66.7099 69.3601 66.7799C68.4901 67.1799 67.6601 67.6699 66.9201 68.2699C66.9301 68.5999 66.9201 68.9199 66.9001 69.2399C66.8901 69.3799 66.8801 69.5199 66.8601 69.6599C66.7601 71.1399 66.2801 72.5899 65.3701 73.7899H65.3501C65.2701 73.8299 65.1601 73.7599 65.1901 73.6599V73.6399C65.8001 72.4199 66.2501 71.0799 66.3601 69.7199C66.4001 69.2299 66.4001 68.7399 66.3401 68.2499C66.3101 68.1999 66.2901 68.1499 66.2901 68.0899C66.1001 67.7999 65.7701 67.6299 65.4101 67.5999C65.0601 67.5699 64.6801 67.6299 64.3101 67.7499C64.3201 67.8699 64.3401 67.9899 64.3501 68.1099C64.3801 68.6499 64.3501 69.1899 64.2601 69.7299C64.1701 70.2599 64.0301 70.7899 63.8001 71.2799C63.7701 71.3499 63.6801 71.3799 63.6101 71.3499C63.5401 71.3199 63.5101 71.2399 63.5301 71.1799C63.6801 70.6899 63.7801 70.1899 63.8201 69.6799C63.8601 69.1699 63.8401 68.6599 63.7801 68.1599C63.6601 67.1599 63.3601 66.1699 62.9001 65.2899C62.4301 64.4199 61.7601 63.6499 60.9501 63.1199C60.1401 62.5799 59.1901 62.3099 58.2001 62.3299C57.7101 62.3299 57.2101 62.3899 56.7101 62.4799C56.4601 62.5299 56.2101 62.5799 55.9601 62.6399C55.7201 62.7099 55.4701 62.7599 55.2301 62.8499C54.7501 62.9999 54.2801 63.1999 53.8201 63.4099C53.3601 63.6299 52.9101 63.8799 52.4801 64.1499C50.7401 65.2399 49.1601 66.6199 47.5801 67.9799C47.4901 68.0599 47.3501 68.0499 47.2701 67.9599C47.1901 67.8699 47.2001 67.7399 47.2801 67.6599C48.0301 66.9199 48.7901 66.1999 49.5901 65.5099C49.8601 65.2699 50.1401 65.0499 50.4301 64.8199C50.1401 64.9499 49.8701 65.0599 49.6601 65.1399C49.5201 65.1899 49.3901 65.2199 49.2601 65.2499C49.2301 65.2499 49.2101 65.2699 49.1801 65.2699C48.9501 65.3299 48.7201 65.3599 48.5001 65.3799C48.5701 65.4099 48.6101 65.4799 48.5901 65.5599C48.5701 65.6399 48.5001 65.6899 48.4201 65.6799L46.1401 65.4399C45.8701 66.5899 45.6401 67.7499 45.4201 68.9199C45.1901 70.1799 44.9701 71.4499 44.7801 72.7199C44.5801 73.9899 44.4001 75.2599 44.2401 76.5399L43.8701 79.4699L43.7601 80.3699C43.7501 80.4599 43.6701 80.5199 43.5801 80.5099C43.5601 80.5099 43.5601 80.4899 43.5401 80.4899C43.4901 80.4699 43.4601 80.4299 43.4501 80.3799C43.3901 80.8999 43.3501 81.3499 43.3101 81.7299C43.3501 81.6999 43.4001 81.6899 43.4501 81.6999C43.5501 81.7099 43.6301 81.7799 43.6301 81.9099C43.5801 82.9799 43.4701 84.1099 43.5301 85.1799L51.1701 87.2699L51.3201 86.4499C51.3401 86.3599 51.4201 86.2999 51.5201 86.3199C51.6101 86.3399 51.6701 86.4199 51.6601 86.5099L50.9501 92.0599C52.0201 92.5699 53.2201 92.7999 54.3801 93.0399C55.1301 93.1799 55.8801 93.2799 56.6301 93.3599L57.9801 89.4099C58.0201 89.2999 58.1401 89.2399 58.2401 89.2799C58.3401 89.3099 58.4001 89.4199 58.3801 89.5199L57.6101 93.4599C58.4601 93.5299 59.3201 93.5699 60.1801 93.5899C60.9001 93.6099 61.6101 93.6199 62.3301 93.6299L63.5701 89.7799C63.6101 89.6699 63.7201 89.6099 63.8301 89.6499C63.9301 89.6799 63.9901 89.7799 63.9701 89.8799L63.3101 93.6299C64.0601 93.6299 64.8001 93.6099 65.5401 93.5599C65.6301 93.5599 65.7201 93.5399 65.8101 93.5399L66.6701 91.2699C66.9901 90.4499 67.3001 89.6199 67.6301 88.7999C67.6901 88.6499 67.9401 88.7299 67.8801 88.8899C67.8101 89.1099 67.7401 89.3599 67.6601 89.6099C67.7001 89.6199 67.7501 89.6299 67.7701 89.6399C67.9101 89.6699 68.3301 89.7499 68.4801 89.7799C69.0101 89.8799 70.3501 90.0899 71.0901 90.1999C72.5101 87.3899 73.4901 84.3699 74.1301 81.2799C74.7801 78.1199 75.1401 74.8599 75.1201 71.6299C75.1201 71.5599 75.1601 71.5099 75.2101 71.4699C75.2401 71.4499 75.2801 71.4199 75.3201 71.4199C75.4301 71.4199 75.5201 71.5099 75.5201 71.6199V71.9899C75.5201 72.4699 75.5201 72.9499 75.5001 73.4199L75.5801 72.0999L75.6601 70.8399C75.5801 70.1099 75.4501 69.3899 75.2101 68.6999V68.6399H75.2201ZM64.1601 84.2699C63.3701 83.6999 62.3801 83.5799 61.4401 83.7799C61.2701 83.8199 61.1801 83.5799 61.3301 83.4899C62.2901 82.8499 63.8101 83.0099 64.4101 84.0799C64.4901 84.2299 64.3001 84.3799 64.1701 84.2699H64.1601ZM55.5101 86.2299C53.3301 85.6999 52.3501 81.8499 53.1901 77.4099C53.2501 77.0999 53.3101 76.7899 53.3901 76.4799C54.5501 71.6599 57.3901 68.2199 59.7301 68.7799C61.0701 69.0999 61.9601 70.6899 62.2401 72.8999C62.4501 74.5199 62.3401 76.4799 61.8501 78.5299C60.6901 83.3499 57.8501 86.7899 55.5101 86.2299ZM64.3701 87.1699C64.2101 87.4199 63.9201 87.5899 63.6001 87.5299L59.9601 86.9199C59.5801 86.8599 59.3701 86.5399 59.3701 86.2099C59.3701 85.9499 59.4801 85.6799 59.7401 85.5099L60.3101 85.1499C62.0901 83.9999 63.6901 84.3199 64.2601 85.9199L64.4601 86.4799C64.5501 86.7199 64.5001 86.9799 64.3801 87.1699H64.3701ZM72.7001 80.4899C71.6201 84.9799 69.1001 88.2199 67.0801 87.7299C65.0601 87.2399 64.3001 83.2099 65.3801 78.7199C66.4601 74.2299 68.9801 70.9899 71.0001 71.4799C73.0201 71.9699 73.7801 75.9999 72.7001 80.4899Z" />
    <path fill="white" d="M28.27 71.7299C28 71.6599 27.73 71.6198 27.46 71.5998C27.37 71.5998 27.28 71.5898 27.19 71.5898H27.03C25.14 71.6098 23.25 72.4898 21.88 73.7698C21.69 73.9498 21.52 74.1398 21.35 74.3498C21.25 74.4698 21.16 74.5898 21.07 74.7198C20.93 74.9298 20.8 75.1498 20.69 75.3798C20.31 76.1298 20.1 76.9499 20.07 77.7999C20.05 78.8299 20.69 79.6898 21.59 80.1898C22.52 80.6898 23.52 80.7798 24.51 80.5998C24.26 80.3298 24.02 80.0698 23.78 79.7898C23.78 79.8698 23.78 79.9498 23.8 80.0198C23.82 80.1498 23.74 80.2598 23.62 80.2798C23.5 80.2998 23.38 80.2198 23.36 80.0998C23.25 79.4398 23.4 78.7498 23.75 78.1998C23.96 77.8498 24.24 77.5398 24.54 77.2698C24.71 77.1098 24.9 76.9598 25.09 76.8298C25.15 76.7898 25.21 76.7598 25.27 76.7198C25.42 76.6198 25.58 76.5298 25.74 76.4498C25.8 76.4198 25.85 76.3798 25.91 76.3498C26.19 76.2098 26.5 76.0998 26.81 75.9998C27.38 75.8398 27.99 75.7498 28.63 75.8198C28.73 75.7998 28.83 75.8198 28.93 75.8798C28.96 75.8898 28.98 75.9098 29 75.9298C29.01 75.9398 29.03 75.9398 29.04 75.9598C29.22 76.1398 29.41 76.2999 29.59 76.4799C29.7 76.5899 29.81 76.6899 29.92 76.7999C30.04 76.5799 30.14 76.3598 30.22 76.1298C30.57 75.1898 30.64 74.1698 30.19 73.2398C29.82 72.4098 29.09 71.9598 28.26 71.7498V71.7299H28.27Z" />
    <path fill="white" d="M9.13002 69.23C9.09002 69.55 9.10002 69.89 9.21002 70.19C9.25002 70.31 9.30002 70.42 9.37002 70.52C9.44002 70.63 9.53002 70.73 9.62002 70.83C9.80002 71.03 10.02 71.2 10.26 71.35C10.73 71.65 11.27 71.87 11.82 72.07C11.94 72.11 12.06 72.14 12.18 72.18C11.08 71.29 10.05 70.31 9.14002 69.24H9.13002V69.23Z" />
    <path fill="white" d="M16.83 73.1998C16.49 73.0698 16.07 72.8598 15.75 72.9798C15.75 72.9898 15.75 73.0098 15.78 73.0298C16.23 73.4898 16.96 73.7298 17.54 74.0198C18.06 74.2198 18.62 74.4098 19.17 74.4698H19.23C18.88 74.2198 18.5 73.9998 18.12 73.7898C17.7 73.5698 17.26 73.3698 16.83 73.1898V73.1998Z" />
    <path fill="white" d="M20.67 73.9499C20.82 73.7599 20.97 73.5799 21.13 73.4099C21.75 72.7599 22.48 72.2399 23.26 71.8199C24.75 71.0499 26.48 70.6099 28.15 70.9699C28.57 69.9699 28.06 68.9799 27.13 68.3699C25.69 67.3499 23.08 66.9699 22.41 64.9099C21.8 62.9999 22.36 61.0299 21.97 59.1099C21.86 58.5599 21.73 57.9699 21.35 57.5399C20.11 56.1899 17.99 56.7699 17.3 58.4199C16.17 60.6199 16.74 63.1799 17.35 65.4499C17.57 66.0899 17.04 66.7999 16.35 66.7699C15.86 66.7799 15.5 66.3299 15.31 65.9399C14.43 64.1699 13.91 62.2799 13.43 60.3799C13.09 59.2399 12.85 57.9799 11.98 57.1299C10.26 55.7299 7.91004 57.5999 7.90004 59.5699C7.90004 59.8799 7.90004 60.1899 7.94004 60.4999C8.01004 61.2799 8.20004 62.0399 8.47004 62.7799C8.79004 63.6699 9.23004 64.5299 9.74004 65.3399C10.15 65.9799 10.59 66.5899 11.06 67.1599C11.52 67.7199 12.03 68.2499 12.51 68.8099C12.88 69.2399 13.22 69.6899 13.48 70.1999C13.57 70.4099 13.27 70.5799 13.15 70.3799C12.51 69.3099 11.51 68.5099 10.63 67.5299C10.19 67.0499 9.78004 66.5299 9.40004 65.9999C9.02004 65.4699 8.68003 64.9099 8.38003 64.3199C8.11003 63.7799 7.86004 63.1999 7.65004 62.6199C7.46004 62.0699 7.31004 61.5099 7.22004 60.9399C7.18004 60.7099 7.16004 60.4799 7.15004 60.2499C7.09004 60.3499 7.05004 60.4599 7.00004 60.5599C6.89004 60.7899 6.81004 61.0299 6.76004 61.2699C6.69004 61.6299 6.68004 62.0099 6.71004 62.3999C6.78004 63.2299 7.03004 64.0799 7.30004 64.8299C8.67004 68.4599 11.73 71.1299 14.87 73.2899C16.39 74.3199 18.04 75.1699 19.82 75.4199C19.88 75.2799 19.94 75.1299 20.01 74.9899C20.12 74.7599 20.26 74.5399 20.4 74.3299C20.48 74.1999 20.57 74.0799 20.66 73.9599L20.67 73.9499ZM16.97 69.5699C17.6 69.2999 18.08 69.6699 18.55 69.9399C19.59 70.5899 20.51 71.4499 21.26 72.4199C21.48 72.6799 21.49 73.1199 21.1 73.2099C20.91 73.2499 20.71 73.2099 20.55 73.1699C19.75 72.9399 19.03 72.4999 18.37 72.0099C17.81 71.5699 17.14 71.2199 16.76 70.5699C16.58 70.2799 16.61 69.7499 16.97 69.5699ZM19.89 74.8899C19.57 75.0399 19.2 74.9399 18.87 74.8899C18.25 74.7499 17.65 74.5499 17.08 74.2899C16.49 73.9999 15.87 73.8299 15.4 73.3199C15.21 73.1099 15.2 72.7499 15.46 72.5699C15.64 72.4399 15.93 72.4199 16.26 72.4699C17.46 72.6699 19.34 73.8599 19.9 74.3399C20.06 74.4799 20.11 74.7499 19.9 74.8899H19.89Z" />
    <path fill="white" d="M18.09 71.2399C18.43 71.5099 18.79 71.7999 19.17 72.0299C19.62 72.2699 20.13 72.5399 20.63 72.6299C20.04 71.9999 19.39 71.4199 18.7 70.9199C18.37 70.6799 17.97 70.3899 17.63 70.1999C17.5 70.1299 17.37 70.0899 17.25 70.1199C17.25 70.1199 17.23 70.2299 17.27 70.3299C17.43 70.6799 17.8 70.9799 18.1 71.2399H18.09Z" />
    <path fill="white" d="M60.33 111.6C60.08 111.87 59.83 112.13 59.62 112.33C59.48 112.46 59.3 112.61 59.12 112.78C59.69 113.39 60.1 113.89 60.32 114.18C60.36 114.23 60.42 114.27 60.49 114.28C60.56 114.28 60.63 114.27 60.68 114.23L61.48 113.6C61.59 113.52 61.61 113.37 61.54 113.26C61.32 112.93 60.87 112.27 60.33 111.61V111.6Z" />
    <path fill="white" d="M58.09 110.67C58.31 110.46 58.55 110.21 58.79 109.96C58.09 109.28 57.37 108.6 56.94 108.2C56.89 108.15 56.83 108.13 56.77 108.13C56.71 108.13 56.64 108.15 56.59 108.2L55.61 109.13C55.61 109.13 55.53 109.25 55.53 109.32C55.53 109.39 55.56 109.46 55.62 109.51C55.95 109.79 56.62 110.37 57.53 111.21C57.74 111.01 57.94 110.82 58.1 110.67H58.09Z" />
    <path fill="white" d="M60.19 111.43L60.27 111.35C60.27 111.35 60.32 111.29 60.34 111.27C60.76 110.81 61.16 110.34 61.37 110.08C61.46 109.97 61.46 109.81 61.37 109.71L60.54 108.8C60.49 108.74 60.41 108.71 60.33 108.71C60.25 108.71 60.17 108.75 60.12 108.81C59.88 109.1 59.51 109.53 59.12 109.96L59.04 110.04L58.96 110.12C58.72 110.38 58.48 110.63 58.25 110.84C58.09 110.99 57.89 111.17 57.69 111.37L57.61 111.45L57.53 111.53C56.9 112.13 56.2 112.81 55.85 113.15C55.79 113.21 55.76 113.28 55.76 113.37C55.76 113.45 55.8 113.53 55.87 113.58L56.71 114.25C56.81 114.33 56.97 114.33 57.07 114.25C57.43 113.95 58.17 113.33 58.8 112.79L58.88 112.72L58.96 112.65C59.15 112.49 59.32 112.33 59.47 112.2C59.68 112 59.94 111.74 60.19 111.46V111.43Z" />
    <path fill="#332D30" d="M41.5801 95.1301C40.3701 94.1301 39.1001 93.1801 37.8201 92.2501C36.5401 91.3101 35.2601 90.3701 33.9801 89.4001C33.9501 89.3801 33.9301 89.3601 33.9101 89.3401C33.8301 89.5101 33.7501 89.6801 33.6901 89.8101C33.2401 90.8301 32.7701 91.9601 32.3801 92.9901C31.3701 95.7801 30.2501 98.7101 30.6601 101.7C30.9401 103.78 32.1101 105.87 34.1601 106.53C36.6001 107.29 39.2201 106.06 41.0001 104.39C41.7801 103.59 42.4201 102.68 42.9901 101.71C43.6501 100.58 44.2101 99.3701 44.7001 98.1501C43.8101 97.0501 42.7101 96.0601 41.5801 95.1301Z" />
    <path fill="#332D30" d="M67.5501 89.9402C67.3601 90.5702 67.1501 91.2602 66.9501 91.9202C67.8701 91.4902 68.6101 90.9802 69.2101 90.3702C68.8801 90.2902 68.5801 90.2202 68.3901 90.1702C68.2401 90.1302 67.8301 90.0202 67.6801 89.9802C67.6401 89.9702 67.6001 89.9602 67.5501 89.9402Z" />
    <path fill="#332D30" d="M76.6201 70.5601C76.3601 70.3301 76.1601 70.1801 75.9601 70.0401C76.0601 70.7201 76.1001 71.4101 76.1201 72.0901C76.1201 72.1801 76.0501 72.2601 75.9501 72.2701C75.9101 72.2701 75.8801 72.2501 75.8501 72.2301C75.8101 72.2001 75.7701 72.1601 75.7701 72.1001C75.7501 71.6601 75.7101 71.2201 75.6601 70.7801L75.5801 72.0401L75.5001 73.3601C75.4901 73.9201 75.4601 74.4801 75.4301 75.0301C75.1301 80.4301 73.9601 85.8101 71.5701 90.6701C71.5001 90.8001 71.3601 90.8601 71.2201 90.8301C70.9401 90.7601 70.4601 90.6501 69.9601 90.5401C69.1401 91.4801 68.1001 92.1901 66.6901 92.7701C66.5701 93.1701 66.4601 93.5501 66.3601 93.9001C66.2601 94.2201 65.8201 94.1301 65.5801 94.1801L65.0801 94.2101C64.4401 94.2201 63.8101 94.2301 63.1701 94.2401C63.1001 94.4901 62.8601 94.6501 62.6001 94.6101C62.4001 94.5801 62.2501 94.4301 62.2001 94.2501C60.6001 94.2501 59.0001 94.2001 57.4101 94.0701C57.2901 94.2101 57.1101 94.2901 56.9201 94.2501C56.7601 94.2201 56.6401 94.1201 56.5701 93.9901C55.7901 93.9101 55.0201 93.8001 54.2401 93.6601C52.9401 93.3801 51.5801 93.1501 50.4101 92.5001C50.3901 92.4901 50.3901 92.4701 50.3701 92.4601L48.7701 91.1801C48.6801 91.1001 48.6301 90.9901 48.6501 90.8801L49.1501 87.1801L43.1301 85.7301C43.1301 85.7301 43.1201 85.7301 43.1101 85.7201C43.0601 85.7001 43.0101 85.6801 42.9701 85.6301H42.9601C42.8801 85.5301 41.5001 83.9601 40.7401 82.4201C40.7101 82.3701 40.7001 82.3101 40.7101 82.2501C40.7101 82.2201 40.7701 81.3501 40.9001 79.9301V79.8201L40.9301 79.6101C41.2201 76.4701 41.8201 71.0201 42.8901 65.9701C42.9101 65.8601 42.9901 65.7601 43.1001 65.7301L45.7201 64.7801L45.7901 64.7501C45.7901 64.7501 45.8701 64.7301 45.9101 64.7301H45.9601L48.4001 65.3301L48.5001 65.3501L48.5201 65.3701C48.7401 65.3501 48.9701 65.3101 49.2001 65.2601C49.2201 65.2601 49.2501 65.2401 49.2801 65.2401C49.4101 65.2101 49.5501 65.1801 49.6801 65.1301C49.9001 65.0501 50.1601 64.9401 50.4501 64.8101C50.5001 64.7701 50.5401 64.7301 50.5901 64.7001C51.0901 64.3001 51.6001 63.9201 52.1401 63.5701C53.0301 62.9901 53.9901 62.4701 55.0201 62.1301C55.2701 62.0401 55.5401 61.9701 55.8001 61.9001C56.0601 61.8301 56.3201 61.7701 56.5901 61.7201C57.1201 61.6201 57.6701 61.5501 58.2201 61.5501C58.7701 61.5501 59.3401 61.6101 59.8801 61.7701C60.4201 61.9301 60.9401 62.1701 61.4101 62.4801C62.3401 63.1101 63.0801 63.9901 63.5601 64.9801C63.8001 65.4801 63.9901 65.9901 64.1201 66.5201C64.1801 66.7401 64.2201 66.9601 64.2601 67.1901C65.0901 66.9401 66.1201 66.9501 66.7001 67.6601C67.7801 66.8801 68.9601 66.2501 70.2201 65.8601C70.4301 65.8001 70.6301 65.7401 70.8401 65.6901C71.0201 65.6501 71.2101 65.6101 71.3901 65.5701H71.5801V65.5501C71.4401 65.2801 71.2901 65.0201 71.1201 64.7701C71.0401 64.6601 70.9601 64.5501 70.8801 64.4501C70.4801 63.9501 69.9801 63.5301 69.3701 63.3201C69.2401 63.2901 69.1701 63.1601 69.2001 63.0401C69.2101 62.9901 69.2401 62.9501 69.2801 62.9301C69.4301 62.8001 69.5701 62.6701 69.7201 62.5301C69.7401 62.5101 69.7501 62.4901 69.7801 62.4801C70.5601 61.7301 71.2901 60.8701 71.6501 59.8601C71.7901 59.3901 71.8901 58.8801 71.6001 58.5301C71.5201 58.4601 71.4401 58.4401 71.3501 58.4201C71.2201 58.4201 71.0801 58.4201 70.9101 58.4601C70.8601 58.4601 70.8101 58.4901 70.7601 58.5001C70.4001 58.6001 70.0301 58.7401 69.6301 58.8401C68.7201 59.0701 67.8301 59.2001 66.9201 59.3301C66.6201 59.3801 66.4101 58.9901 66.6101 58.7701C67.4601 57.7901 68.2701 56.6501 68.2201 55.3001C68.2001 55.0101 68.1901 54.7301 68.0001 54.6101C67.9701 54.5901 67.9201 54.5801 67.8101 54.5901C67.0601 54.6901 66.3201 55.0701 65.6001 55.3801L64.0601 56.0601C63.0301 56.5101 61.9701 56.9501 60.8601 57.2801C59.7401 57.6301 58.5801 57.7501 57.4601 57.8601C55.2401 58.0601 53.0401 58.2101 50.9101 58.8301C49.5001 59.2101 48.2401 59.7701 47.1101 60.4801C46.9701 60.5701 46.8401 60.6601 46.7101 60.7501C43.5201 62.9101 41.4201 66.2901 40.1001 70.1601C39.3701 72.2701 38.8701 74.4601 38.2101 76.5901C37.9601 77.4101 37.7001 78.2601 37.4401 79.1201C37.4001 79.2501 37.3601 79.3801 37.3201 79.5001C37.2401 79.7701 37.1501 80.0501 37.0701 80.3201C36.9501 80.6901 36.8401 81.0601 36.7201 81.4201L36.4601 82.2201L36.3301 82.6201L36.3001 82.7101C36.9601 83.3001 37.6101 83.9101 38.2701 84.4901C38.9001 85.0401 39.5301 85.5901 40.1701 86.1301C39.1001 84.3901 38.4601 82.4701 38.3801 80.4101C38.3701 80.1301 38.3701 79.8501 38.3801 79.5701C38.3801 79.4401 38.3901 79.3101 38.4001 79.1801C38.4501 78.4901 38.5501 77.7801 38.7301 77.0601C38.7901 76.8201 38.9001 76.3901 38.9401 76.1601C38.9401 76.0501 39.0501 75.9701 39.1501 75.9901C39.4601 76.0501 39.2301 76.5001 39.2201 76.6801L39.1301 77.1401C38.9801 77.8201 38.9201 78.5101 38.9001 79.1901C38.9001 79.3201 38.8801 79.4401 38.8801 79.5701C38.8801 79.8501 38.9101 80.1301 38.9301 80.4101C39.1201 82.6801 39.9901 84.8601 41.4801 86.6301C42.2201 87.5301 43.0801 88.3401 44.0001 89.0701C44.1901 89.1901 44.6001 89.5201 44.6801 89.5801L44.8901 89.7501C45.1501 89.9301 45.3901 90.1101 45.6501 90.2801C46.5101 90.8201 47.4101 91.3901 48.3601 91.7201C48.4701 91.7401 48.5501 91.8601 48.5101 91.9801C48.4801 92.0801 48.3701 92.1401 48.2701 92.1101C48.1801 92.0801 48.0901 92.0501 48.0101 92.0201L48.0501 92.0401L47.9501 91.9901C47.8001 91.9301 47.6501 91.8701 47.5101 91.8101C47.4501 91.7801 47.4001 91.7501 47.3501 91.7301L44.6001 90.5301C44.1001 90.3401 43.3201 89.7701 43.2701 89.6701C42.6401 89.1201 42.0501 88.5501 41.5201 87.9301C38.6001 85.7001 35.8401 83.2701 33.0701 80.8601C32.5401 80.3901 32.0201 79.9301 31.5001 79.4601C31.0801 79.0901 30.6701 78.7101 30.2601 78.3401C30.1001 78.2001 29.9501 78.0501 29.7901 77.9001C29.7301 77.8501 29.6701 77.7901 29.6201 77.7401L29.6001 77.7201C29.6001 77.7201 29.4901 77.6201 29.4401 77.5701C29.1001 77.2501 28.7501 76.9401 28.4101 76.6201C28.4101 76.6201 28.4001 76.6001 28.3901 76.5901C27.9601 76.4901 27.4801 76.5001 27.0101 76.5901C26.8701 76.6201 26.7301 76.6701 26.5901 76.7101C26.3801 76.7701 26.1801 76.8501 25.9801 76.9401C25.7901 77.0301 25.6001 77.1101 25.4201 77.2301C25.3101 77.3001 25.2101 77.3701 25.1001 77.4501C24.7401 77.7201 24.4201 78.0301 24.1801 78.4001C24.0201 78.6401 23.9101 78.9101 23.8501 79.1901C23.8701 79.2001 23.9001 79.2001 23.9201 79.2201C24.3201 79.6301 24.7301 80.0201 25.1401 80.4201C25.2001 80.4801 25.2601 80.5401 25.3301 80.6001L25.5101 80.7801C27.2501 82.4701 29.0401 84.1101 30.8901 85.6701C32.1001 86.6901 33.3301 87.6701 34.6101 88.6001C35.8801 89.5401 37.1901 90.4301 38.4801 91.3701C39.7701 92.3001 41.0701 93.2401 42.3201 94.2501C42.9501 94.7601 43.5601 95.2801 44.1501 95.8501C44.7401 96.4101 45.3101 97.0101 45.8201 97.6701C46.3201 98.3401 46.7901 99.0901 46.9801 100.02C47.0101 100.13 47.0101 100.25 47.0301 100.37C47.0301 100.43 47.0401 100.49 47.0501 100.55V100.71C47.0501 100.92 47.0501 101.13 47.0301 101.35C47.0101 101.56 46.9901 101.77 46.9601 101.98C46.9301 102.19 46.8801 102.4 46.8401 102.6C46.6501 103.42 46.3201 104.21 45.8901 104.92C45.8101 105.05 45.7201 105.18 45.6301 105.31C48.3101 104.48 51.2601 104.2 53.3201 104.11C55.4601 104.02 57.1801 104.28 57.2601 104.29C57.3701 104.31 57.4601 104.37 57.5101 104.47L59.0101 107.34L60.4501 104.56C60.5101 104.45 60.6201 104.38 60.7501 104.38C60.8301 104.38 62.7401 104.39 64.8401 105.69C65.0401 105.81 65.2101 105.93 65.3701 106.04C65.2501 105.33 65.1101 104.62 64.8901 103.93C64.5901 102.9 64.2101 101.88 63.7201 100.91C63.2401 99.9401 62.6801 99.0101 62.0301 98.1401C62.0001 98.1001 61.9701 98.0701 61.9401 98.0301C61.8701 98.0001 61.8101 97.9601 61.7801 97.8801C61.7801 97.8601 61.7801 97.8401 61.7701 97.8201C61.1801 97.0701 60.5501 96.3601 59.8301 95.7401C59.8301 95.7401 59.7901 95.6801 59.8001 95.6401C59.7001 95.5601 59.6201 95.4901 59.5501 95.4301L59.8001 95.6401C59.8001 95.6401 59.8001 95.6001 59.8201 95.5901C59.8601 95.5501 59.9201 95.5401 59.9701 95.5701C60.7101 96.1301 61.3701 96.7901 61.9901 97.4801C62.4301 97.2901 70.0501 93.9701 73.1801 88.7601C76.3101 83.5401 76.8801 81.4301 77.4901 77.5101C77.5201 77.3201 77.5401 77.1501 77.5701 76.9601C77.6101 76.6901 77.6501 76.4101 77.6801 76.1601C77.7101 75.9401 77.7201 75.7401 77.7401 75.5401C77.9801 72.9101 77.6601 71.4301 76.6801 70.5601H76.6201Z" />
    <path fill="#332D30" d="M38.98 133.8C37.93 133.35 37.1501 132.84 36.5701 132.32C36.5401 132.3 36.5201 132.27 36.4901 132.25C36.2601 132.73 36.01 133.21 35.76 133.67C35.24 134.62 34.6801 135.54 34.1001 136.44C34.0801 136.47 34.0301 136.48 34.0001 136.46C33.9701 136.44 33.9601 136.4 33.9701 136.37C34.4601 135.42 34.9301 134.45 35.3501 133.47C35.5901 132.91 35.8101 132.34 36.0201 131.77C35.9901 131.73 35.95 131.7 35.92 131.66C35.76 131.47 35.6301 131.28 35.5201 131.1C35.4601 131.01 35.42 130.93 35.37 130.84C35.31 130.73 35.26 130.63 35.23 130.53C35.14 130.3 35.0901 130.11 35.0801 129.98C35.0701 129.85 35.1101 129.65 35.2101 129.38C35.2401 129.3 35.27 129.22 35.31 129.13V129.09C35.24 129.05 35.1601 129.01 35.0801 128.98C35.0301 128.96 34.97 128.96 34.92 128.95C34.34 128.81 33.7001 128.94 33.1601 129.15C32.5601 129.4 32.11 129.88 31.84 130.47C31.74 130.68 31.6701 130.9 31.6101 131.12C31.4901 131.56 31.4101 132.02 31.3601 132.47C31.2401 133.54 31.2601 134.63 31.4101 135.69C31.4201 135.78 31.4401 135.87 31.4601 135.96C31.5001 136.2 31.54 136.45 31.59 136.69C31.98 138.19 32.52 139.75 33.45 140.97C33.75 141.35 34.1301 141.63 34.5501 141.82C34.6601 141.87 34.7701 141.91 34.8901 141.94C35.0101 141.98 35.1301 142 35.2501 142.02C35.6101 142.08 35.9901 142.08 36.3801 142C39.1501 141.47 41.05 138.95 42.59 136.74C43.1 135.94 43.6201 135.12 44.1001 134.27C43.5701 134.35 42.9901 134.4 42.3801 134.4C41.2601 134.4 40.0701 134.23 38.9901 133.77V133.8H38.98Z" />
    <path fill="#332D30" d="M72.1401 119.4C71.5201 119.15 70.8401 119.01 70.1601 118.93C69.8601 118.89 69.5601 118.87 69.2501 118.86H68.2201C68.1801 118.92 68.1401 118.98 68.1101 119.05C68.0501 119.16 67.9901 119.28 67.9301 119.39C67.8201 119.62 67.7101 119.87 67.6201 120.12C67.4301 120.62 67.2801 121.13 67.1601 121.65C67.0401 122.17 66.9201 122.71 66.8301 123.24C66.7801 123.51 66.7401 123.77 66.7001 124.04C66.6801 124.17 66.6701 124.31 66.6501 124.44C66.6501 124.49 66.6501 124.54 66.6401 124.59H66.9901C67.1001 124.59 67.2101 124.59 67.3301 124.62C67.3901 124.63 67.4601 124.65 67.5201 124.67C67.5701 124.68 67.6101 124.7 67.6601 124.72C67.7101 124.74 67.7701 124.76 67.8201 124.8C67.9001 124.84 67.9701 124.91 68.0401 124.98C68.1001 125.06 68.1601 125.14 68.1901 125.23C68.2301 125.32 68.2601 125.41 68.2601 125.5V125.76C68.2601 125.94 68.2101 126.08 68.1701 126.24C68.1501 126.32 68.1101 126.39 68.0801 126.46C68.0301 126.6 67.9801 126.73 67.9201 126.86C67.8901 126.93 67.8701 127.01 67.8301 127.08C67.8001 127.15 67.7601 127.21 67.7301 127.28C67.5001 127.75 67.2401 128.21 66.9701 128.65C66.6901 129.1 66.4001 129.54 66.1001 129.98C66.3001 130.06 66.4901 130.14 66.7001 130.2C67.4201 130.43 68.1801 130.52 68.9401 130.51C69.7101 130.5 70.4901 130.42 71.2601 130.29C71.4801 130.25 71.7101 130.19 71.9301 130.14C72.2901 129.55 72.6201 128.92 72.9101 128.28C72.9601 128.17 73.0001 128.06 73.0501 127.96C73.1101 127.83 73.1601 127.7 73.2201 127.57C73.2701 127.44 73.3301 127.31 73.3801 127.17C73.4901 126.89 73.5901 126.61 73.6801 126.33C73.9001 125.66 74.0501 124.99 74.1701 124.3C74.2801 123.62 74.3201 122.93 74.3001 122.25C74.2801 121.59 74.0901 120.99 73.7001 120.5C73.3101 120.02 72.7501 119.66 72.1401 119.42V119.4Z" />
    <path fill="black" d="M43.5201 89.9299C43.4201 89.8499 43.3401 89.7699 43.2401 89.6899C43.2901 89.7899 44.0701 90.3599 44.5701 90.5499L47.3201 91.7499C46.2101 91.2299 45.1601 90.5799 44.1501 89.8899C44.0001 90.0499 43.7501 90.1199 43.5201 89.9299Z" />
    <path fill="black" d="M48.0401 92.05L48.0001 92.03C48.0001 92.03 47.9501 92.02 47.9301 92.01L48.0301 92.06H48.0401V92.05Z" />
    <path fill="black" d="M44.1801 89.2701C44.4101 89.4401 44.6501 89.5901 44.8801 89.7601L44.6701 89.5901C44.5901 89.5301 44.1801 89.2001 43.9901 89.0801C44.0301 89.1201 44.0701 89.1601 44.1201 89.1901C44.1501 89.2101 44.1601 89.2401 44.1901 89.2701H44.1801Z" />
    <path fill="black" d="M44.16 89.8799L43.5 89.4299L43.25 89.6799C43.34 89.7599 43.43 89.8399 43.53 89.9199C43.76 90.1099 44.01 90.0399 44.16 89.8799Z" />
    <path fill="black" d="M43.8701 89.06C43.9701 89.13 44.0801 89.2 44.1801 89.27C44.1601 89.24 44.1401 89.22 44.1101 89.19C44.0701 89.16 44.0301 89.11 43.9801 89.08C43.9301 89.05 43.8901 89.03 43.8801 89.04L43.8601 89.06H43.8701Z" />
    <path fill="black" d="M44.16 89.88C45.18 90.57 46.22 91.21 47.33 91.74L47.94 92C47.94 92 47.99 92.02 48.01 92.02L46.66 91.17L44.88 89.75C44.65 89.59 44.41 89.43 44.18 89.26C44.35 89.46 44.31 89.71 44.16 89.87V89.88Z" />
    <path fill="black" d="M44.16 89.8801C44.31 89.7201 44.35 89.4701 44.18 89.2701C44.08 89.2001 43.97 89.1301 43.87 89.0601L43.5 89.4301L44.16 89.8801Z" />
    <path fill="black" d="M18.3601 72.0099C19.0201 72.4999 19.7401 72.9399 20.5401 73.1699C20.7001 73.2099 20.9 73.2499 21.09 73.2099C21.49 73.1199 21.4801 72.6799 21.2501 72.4199C20.5001 71.4499 19.5801 70.5899 18.5401 69.9399C18.0701 69.6699 17.59 69.2999 16.96 69.5699C16.59 69.7499 16.5601 70.2799 16.7501 70.5699C17.1201 71.2099 17.7901 71.5699 18.3601 72.0099ZM17.24 70.1199C17.24 70.1199 17.26 70.0999 17.24 70.1099C17.37 70.0899 17.5001 70.1299 17.6201 70.1999C17.9601 70.3899 18.3501 70.6799 18.6901 70.9199C19.3801 71.4299 20.0301 71.9999 20.6201 72.6299C20.1101 72.5399 19.6001 72.2699 19.1601 72.0299C18.7901 71.7999 18.4201 71.5099 18.0801 71.2399C17.7801 70.9799 17.4101 70.6799 17.2501 70.3299C17.2101 70.2299 17.1901 70.1699 17.2301 70.1199H17.24Z" />
    <path fill="black" d="M17.07 74.3001C17.65 74.5601 18.24 74.7601 18.86 74.9001C19.19 74.9501 19.56 75.0501 19.88 74.9001C20.09 74.7601 20.04 74.4901 19.88 74.3501C19.32 73.8701 17.43 72.6801 16.24 72.4801C15.91 72.4201 15.62 72.4401 15.44 72.5801C15.18 72.7601 15.19 73.1301 15.38 73.3301C15.85 73.8401 16.47 74.0101 17.06 74.3001H17.07ZM16.82 73.1901C17.25 73.3701 17.69 73.5701 18.11 73.7901C18.5 73.9901 18.87 74.2201 19.22 74.4701H19.16C18.6 74.4101 18.04 74.2201 17.53 74.0201C16.95 73.7301 16.22 73.4901 15.77 73.0301C15.75 73.0101 15.75 72.9901 15.74 72.9801C16.06 72.8601 16.48 73.0701 16.82 73.2001V73.1901Z" />
    <path fill="black" d="M92.09 133.1C90.87 131.1 88.65 129.94 86.41 129.5C83.13 128.77 79.58 129.28 76.66 130.96C76.51 131.05 76.37 131.13 76.22 131.23C76.42 130 75.84 128.7 74.84 127.96C74.57 127.76 74.29 127.6 74 127.45C74.13 127.15 74.26 126.86 74.37 126.55C74.64 125.87 74.82 125.15 74.97 124.42C75.03 124.05 75.09 123.69 75.11 123.32C75.15 122.95 75.14 122.57 75.14 122.2C75.13 121.43 74.88 120.6 74.36 119.96C73.84 119.33 73.14 118.9 72.42 118.64C71.7 118.38 70.96 118.24 70.22 118.18C69.96 118.16 69.7 118.16 69.44 118.16C69.47 117.88 69.5 117.61 69.51 117.33C69.51 117.12 69.5201 116.92 69.5201 116.71C69.5201 116.5 69.52 116.3 69.5 116.08V116.04C69.47 115.84 69.29 115.7 69.09 115.72C68.76 115.76 68.4301 115.79 68.1001 115.84C67.7701 115.9 67.44 115.94 67.12 116.01C66.84 116.06 66.56 116.13 66.29 116.21C66.66 115.41 67.0401 114.28 67.2101 112.86C67.5301 110.13 67.01 108.09 66.92 107.78C66.9 107.63 66.8 107.38 66.47 107.03V106.98C66.25 105.87 66.0001 104.77 65.6001 103.72C65.2201 102.66 64.76 101.63 64.2 100.66C63.66 99.71 63.03 98.81 62.33 97.97C62.93 97.7 64.64 96.9 66.59 95.68C68.84 94.27 71.88 91.98 73.61 89.09C76.8 83.78 77.37 81.62 78 77.63C78.04 77.38 78.07 77.15 78.11 76.92C78.64 76.48 79.09 75.99 79.43 75.42C80.48 73.64 80.57 71.38 79.9 69.47C79.63 68.67 79.2 67.96 78.66 67.33C79.08 65.88 79.28 64.43 79.26 63.02C79.23 60.59 78.45 58.29 77.06 56.47C76.99 56.62 76.93 56.78 76.86 56.93C76.82 57.01 76.79 57.08 76.75 57.16C77.92 58.82 78.5701 60.87 78.6001 63.02C78.6101 64.24 78.45 65.49 78.12 66.74C76.97 65.65 75.47 64.92 73.9 64.72C73.71 64.69 73.67 64.98 73.86 65.01C75.11 65.23 76.31 65.77 77.28 66.58C77.54 66.79 77.78 67.03 78 67.28C78 67.43 78.09 67.56 78.23 67.6H78.26C79.86 69.68 80.14 72.75 78.73 74.99C78.59 75.2 78.43 75.4 78.26 75.59C78.52 72.75 78.1201 71.16 76.9901 70.15C76.5701 69.78 76.28 69.58 75.92 69.36C75.88 69.34 75.84 69.33 75.8 69.32C75.74 69.06 75.6801 68.8 75.6001 68.54C75.1401 66.9 73.91 65.72 72.3 65.56C72.2 65.35 72.09 65.16 71.97 64.99C71.91 64.89 71.85 64.8 71.78 64.7C71.72 64.61 71.65 64.53 71.59 64.45C71.55 64.39 71.5101 64.34 71.4601 64.28C71.3701 64.17 71.28 64.08 71.19 63.98C70.82 63.6 70.4 63.26 69.92 63.05C69.89 63.05 69.8501 63.02 69.8201 63.01L70 62.86C70.16 62.71 70.32 62.56 70.47 62.4C70.49 62.38 70.52 62.36 70.54 62.33C71.34 61.49 72.13 60.5 72.28 59.3C72.36 58.77 72.16 58.04 71.56 57.87H71.55C71.26 57.8 70.9801 57.82 70.7101 57.87C70.2701 57.96 69.85 58.15 69.43 58.23C68.87 58.36 68.2901 58.45 67.7101 58.53C67.8801 58.32 68.05 58.11 68.2 57.89C68.42 57.61 68.64 57.18 68.8 56.7C69.17 55.62 69.25 54.27 68.34 53.79C67.8 53.55 67.26 53.74 66.78 53.87C66.54 53.95 66.32 54.04 66.09 54.13C65.24 54.45 64.43 54.81 63.62 55.15C62.6 55.59 61.57 56 60.53 56.3C60.37 56.35 60.2 56.38 60.04 56.42C59.78 56.48 59.52 56.54 59.26 56.59C57.52 56.91 55.7201 56.95 53.9601 57.2C51.6901 57.49 49.43 58.11 47.4 59.19C47.21 59.29 47.02 59.4 46.83 59.51C46.6 59.64 46.37 59.79 46.15 59.93C44.41 61.1 42.98 62.64 41.84 64.4C40.73 66.1 39.8801 67.99 39.2701 69.9C38.9701 70.78 38.7301 71.68 38.4901 72.58C38.4401 72.77 38.39 72.97 38.34 73.16C38.32 73.25 38.2901 73.34 38.2701 73.43C38.1901 73.75 38.1 74.06 38.01 74.38C37.59 75.95 37.14 77.52 36.68 79.09C36.64 79.22 36.6101 79.34 36.5701 79.47C36.5501 79.52 36.54 79.57 36.53 79.62C36.48 79.77 36.41 80.01 36.33 80.28C36.14 80.9 35.9 81.7 35.8 82.03L35.74 82.23C34.86 81.43 33.98 80.64 33.11 79.83C32.74 79.49 32.38 79.13 32.01 78.79C31.82 78.61 31.62 78.42 31.43 78.24C31.05 77.88 30.66 77.51 30.28 77.15C30.33 77.07 30.38 76.98 30.42 76.9C30.6 76.55 30.75 76.19 30.85 75.81C30.91 75.59 30.96 75.36 31 75.13C31.24 73.22 30.32 71.85 28.81 71.26C29.05 70.68 29.12 70.02 28.9 69.43C28.14 67.38 25.75 67.06 24.19 65.97C23.91 65.78 23.69 65.56 23.52 65.31C23.46 65.22 23.4 65.13 23.35 65.04C23.28 64.9 23.22 64.76 23.17 64.62C22.99 64.09 22.94 63.5 22.95 62.9C22.95 60.94 23.2 58.05 21.67 56.7C21.27 56.35 20.76 56.1 20.08 56C17.63 55.68 16.28 57.87 15.91 60C15.61 61.83 16.01 63.65 16.47 65.41C16.49 65.48 16.55 65.69 16.56 65.75C16.6 65.84 16.48 65.96 16.39 65.95C16.26 65.93 16.15 65.69 16.07 65.56C15.23 63.88 14.72 62.03 14.24 60.2C13.88 58.93 13.54 57.47 12.52 56.54C12.31 56.36 12.09 56.22 11.85 56.11C11.56 55.98 11.25 55.9 10.95 55.88C9.39004 55.76 7.73004 56.95 7.32004 58.52C7.26004 58.74 7.23004 58.95 7.20004 59.17C7.17004 59.19 7.14005 59.2 7.11005 59.23C6.90005 59.41 6.72004 59.62 6.57004 59.85C6.44004 60.05 6.34004 60.26 6.25004 60.48C6.14004 60.75 6.06004 61.03 6.02004 61.33C5.98004 61.6 5.97005 61.87 5.98005 62.14C6.15005 64.6 7.18004 66.76 8.63004 68.64C8.53004 68.9 8.46004 69.17 8.46004 69.44C8.46004 69.78 8.51004 70.11 8.63004 70.43C8.69004 70.59 8.78004 70.74 8.88004 70.89C8.98004 71.02 9.09004 71.15 9.20004 71.26C9.43004 71.49 9.69004 71.67 9.96004 71.83C10.51 72.15 11.08 72.35 11.65 72.53C12.12 72.68 12.59 72.79 13.06 72.9C13.52 73.25 13.99 73.58 14.46 73.9C15.28 74.45 16.15 74.97 17.07 75.38C17.88 75.74 18.75 76 19.64 76.14C19.14 77.92 19.39 79.67 21.3 80.67C22.44 81.28 23.67 81.3 24.86 81C25.5 81.69 26.15 82.37 26.82 83.04C27.94 84.17 29.09 85.29 30.28 86.35C31.27 87.24 32.3001 88.1 33.35 88.93C33.24 89.14 33.13 89.39 33.05 89.54C32.56 90.55 32.03 91.68 31.6 92.71C30.71 94.87 29.82 97.09 29.54 99.45C29.12 102.66 30.46 106.58 33.81 107.62C37.06 108.59 40.52 106.71 42.41 104.13C43.34 102.84 44.02 101.43 44.59 99.96C44.76 99.53 44.91 99.1 45.05 98.66C45.41 99.18 45.71 99.73 45.81 100.27C45.83 100.35 45.83 100.43 45.84 100.51C45.84 100.55 45.8401 100.59 45.8501 100.63V101.32L45.81 101.87C45.78 102.05 45.76 102.24 45.73 102.42C45.6 103.15 45.38 103.88 45.09 104.58C44.93 104.96 44.75 105.33 44.55 105.7C41.84 106.83 38.77 109.8 37.68 114.19C36.64 118.35 37.9101 121.69 38.2101 122.38C38.0601 122.8 37.58 124.17 37.23 125.09C37.28 123.4 36.92 121.73 35.97 120.24C33.31 116.91 28.29 117.92 24.95 119.57C22.05 120.93 19.52 123.04 17.58 125.59C15.36 128.5 13.83 131.91 13.05 135.49C12.67 137.32 12.39 139.24 12.98 141.1C14.3 145.04 19.05 145.56 22.61 145.74C24.42 145.83 26.23 145.79 28.04 145.61C29.86 145.4 31.7 145.12 33.36 144.25C33.88 143.98 34.38 143.6 34.75 143.11C36.08 143.42 37.58 143.06 38.8 142.31C40.13 141.49 41.2001 140.36 42.1001 139.12C43.1901 137.59 44.11 135.92 44.79 134.17C45.58 134 46.2001 133.77 46.5201 133.56C47.2801 133.05 48.5801 129.96 48.9901 128.92C49.6201 128.93 51.4201 128.94 53.2101 128.69C55.2101 128.41 57.93 127.76 58.36 127.65C58.64 127.68 59.82 127.83 60.66 127.9C60.96 127.93 61.5501 127.99 62.2401 128.06C61.7601 128.38 61.31 128.78 60.98 129.25C60.47 129.97 60.23 130.9 60.41 131.78C59.2 132.58 58.11 133.59 57.43 134.9C55.03 139.83 61.36 142.81 65.15 144.01C71.12 146.05 83.66 146.7 89.06 143.24C92.25 141.16 94.2601 136.57 92.1001 133.08V133.1H92.09ZM88.5 142.42C83.39 145.71 71.0801 145.09 65.3801 143.25C60.1701 141.68 53.98 137.99 59.91 132.73C60.11 132.56 60.33 132.39 60.55 132.24C60.85 132.9 61.36 133.44 61.98 133.76C62.03 133.78 62.08 133.76 62.11 133.72C62.14 133.67 62.13 133.61 62.08 133.58C61.48 133.19 61.0501 132.58 60.8801 131.92V131.9C60.8801 131.9 60.86 131.9 60.86 131.88C60.86 131.84 60.86 131.81 60.84 131.78C60.65 130.59 61.3501 129.44 62.3201 128.78C62.6801 128.56 63.06 128.37 63.45 128.21C64.59 128.33 65.63 128.44 65.65 128.44C65.78 128.46 65.9 128.39 65.97 128.28C65.99 128.25 66.17 127.95 66.44 127.41C66.69 127.37 66.94 127.34 67.2 127.32C67.01 127.69 66.8 128.06 66.59 128.41C66.31 128.87 66.01 129.33 65.7 129.78C65.68 129.78 65.67 129.76 65.65 129.76C65.31 129.59 64.98 129.37 64.69 129.14C64.69 129.14 64.5701 129.09 64.5201 129.14C64.4601 129.19 64.45 129.27 64.5 129.33C64.77 129.67 65.08 129.93 65.42 130.17C65.76 130.4 66.1301 130.61 66.5201 130.75C67.3001 131.06 68.14 131.19 68.97 131.18C69.79 131.16 70.6 131.06 71.39 130.86C72.18 130.66 72.96 130.38 73.65 129.9C73.7 129.86 73.72 129.8 73.7 129.74C73.67 129.67 73.5901 129.64 73.5201 129.67H73.51C73.22 129.8 72.91 129.89 72.61 129.98C72.93 129.52 73.2201 129.05 73.4901 128.57C73.5501 128.46 73.6 128.35 73.65 128.24C74.91 128.9 75.78 129.97 75.65 131.62C75.54 132.1 75.3301 132.57 75.0201 132.97C74.6901 133.4 74.27 133.77 73.8 134.06C73.33 134.36 72.8101 134.58 72.2701 134.75C71.7301 134.92 71.1601 135.04 70.6001 135.13C70.5601 135.13 70.52 135.18 70.53 135.22C70.53 135.27 70.58 135.3 70.62 135.3C71.78 135.21 72.96 135 74.03 134.44C74.56 134.16 75.06 133.79 75.47 133.33C75.88 132.88 76.19 132.33 76.36 131.73C77.45 131.08 78.68 130.6 79.92 130.3C83.72 129.42 89.08 130.03 91.3 133.6C93.14 136.66 91.29 140.6 88.53 142.43H88.5V142.42ZM58.25 126.99C58.25 126.99 55.24 127.73 53.11 128.03C50.99 128.33 48.8001 128.25 48.7701 128.24C48.6201 128.24 48.5 128.32 48.45 128.45C47.78 130.14 46.62 132.67 46.14 133C45.96 133.12 45.58 133.27 45.06 133.41C44.97 133.43 44.89 133.46 44.8 133.48C44.69 133.51 44.58 133.53 44.47 133.55C43.05 133.84 41 133.94 39.23 133.19C38.09 132.71 37.31 132.14 36.78 131.61C36.6 131.43 36.4501 131.26 36.3201 131.1C36.3001 131.08 36.29 131.06 36.27 131.04C36.23 130.98 36.19 130.93 36.15 130.87C36.04 130.71 35.96 130.56 35.89 130.43C35.82 130.29 35.78 130.18 35.76 130.09C35.75 130.04 35.74 129.99 35.73 129.95C35.73 129.86 35.79 129.68 35.89 129.45C35.91 129.4 35.9301 129.35 35.9601 129.29C35.9601 129.29 35.99 129.22 36 129.18C36.02 129.14 36.03 129.1 36.05 129.06L36.0701 129.01L36.11 128.91C36.14 128.85 36.16 128.79 36.19 128.73C36.23 128.65 36.27 128.57 36.3 128.5C36.52 128.05 36.76 127.58 36.95 127.22L36.99 127.14C37.15 126.82 37.3 126.54 37.41 126.32C37.47 126.21 37.51 126.11 37.55 126.03C37.58 125.94 37.63 125.84 37.67 125.73C38.07 124.73 38.83 122.57 38.86 122.47C38.89 122.39 38.8801 122.3 38.8501 122.22C38.8301 122.19 37.22 118.71 38.31 114.35C39.24 110.64 41.6401 108 43.9601 106.72C44.2301 106.57 44.51 106.43 44.78 106.32C44.93 106.26 45.0901 106.19 45.2401 106.14C47.9801 105.2 51.12 104.9 53.28 104.81C54.98 104.74 56.44 104.9 56.92 104.96L58.6301 108.25C58.6901 108.36 58.8 108.43 58.93 108.43C59.05 108.43 59.17 108.36 59.23 108.25L60.86 105.09C61.38 105.13 62.85 105.33 64.4 106.29C64.84 106.56 65.17 106.8 65.43 107C65.43 107.04 65.44 107.08 65.45 107.12V107.18C65.51 107.46 65.78 107.64 66.06 107.58C66.2 107.74 66.24 107.84 66.25 107.86C66.25 107.88 66.25 107.91 66.26 107.93C66.26 107.95 66.86 110.02 66.53 112.78C66.33 114.47 65.81 115.72 65.41 116.46C65.34 116.48 65.26 116.5 65.19 116.53C64.56 116.74 63.95 117 63.36 117.29C62.77 117.59 62.2 117.91 61.66 118.33C61.59 118.39 61.57 118.5 61.62 118.58C61.68 118.66 61.79 118.68 61.87 118.62H61.8801C62.3901 118.26 62.97 117.96 63.55 117.7C64.14 117.45 64.74 117.23 65.36 117.06C65.98 116.9 66.6 116.75 67.23 116.66C67.5 116.61 67.77 116.59 68.04 116.56C67.85 116.72 67.6601 116.9 67.4901 117.08C67.1001 117.49 66.78 117.96 66.5 118.44C65.94 119.41 65.59 120.48 65.36 121.56C65.14 122.64 65.03 123.74 65.03 124.84C65.03 125.39 65.04 125.94 65.08 126.48C65.09 126.63 65.1101 126.77 65.1301 126.92C65.1401 127.04 65.15 127.16 65.17 127.28V127.3C65.19 127.41 65.2 127.52 65.22 127.63C65.22 127.66 65.22 127.68 65.23 127.71V127.73L64.9601 127.7C64.7001 127.67 64.39 127.64 64.05 127.6C63.81 127.57 63.56 127.55 63.3 127.52C62.24 127.41 61.14 127.29 60.7 127.25C59.76 127.16 58.38 126.99 58.36 126.99H58.25ZM32.97 143.53C31.44 144.28 29.64 144.52 27.94 144.67C26.19 144.81 24.42 144.8 22.66 144.68C19.61 144.45 15.23 144.11 14.11 140.72C13.29 137.86 14.74 133.48 15.89 130.77C18.1 125.57 22.29 121.09 27.75 119.36C30.3 118.53 33.89 118.39 35.54 120.88C36.24 122.05 36.55 123.31 36.6 124.58C35.8201 123.98 34.88 123.59 33.87 123.53C31.4 123.33 28.7001 124.27 27.2101 126.32C26.0901 127.85 25.79 129.86 26.21 131.65C26.13 131.63 26.04 131.6 25.96 131.58C25.7 131.52 25.44 131.49 25.18 131.46C24.65 131.4 24.14 131.4 23.62 131.42C23.1 131.44 22.58 131.51 22.07 131.63C21.56 131.75 21.07 131.92 20.6 132.11C20.55 132.13 20.52 132.19 20.54 132.24C20.56 132.29 20.62 132.32 20.67 132.31C21.15 132.15 21.64 132.01 22.13 131.92C22.62 131.83 23.12 131.8 23.62 131.8C24.12 131.81 24.63 131.85 25.11 131.93C25.35 131.97 25.6 132.02 25.83 132.09C26.04 132.15 26.24 132.22 26.4 132.31C26.48 132.55 26.58 132.79 26.69 133.02C25.88 132.94 25.07 132.96 24.28 133.05C23.29 133.17 22.3 133.38 21.36 133.73C19.49 134.43 17.79 135.54 16.38 136.93C16.33 136.98 16.33 137.05 16.38 137.1C16.43 137.15 16.5 137.15 16.55 137.1C17.98 135.78 19.68 134.76 21.51 134.15C22.42 133.85 23.37 133.68 24.33 133.6C25.26 133.53 26.21 133.55 27.1 133.73C27.84 134.83 28.95 135.65 30.38 135.91C30.42 136.24 30.47 136.57 30.53 136.9C30.94 138.58 31.48 140.28 32.55 141.68C32.95 142.2 33.43 142.57 33.95 142.81C33.67 143.09 33.3301 143.32 32.9601 143.5V143.53H32.97ZM35.51 131.11C35.62 131.29 35.75 131.47 35.91 131.67C35.94 131.71 35.97 131.74 36.01 131.78C35.8 132.35 35.58 132.92 35.34 133.48C34.92 134.46 34.4501 135.43 33.9601 136.38C33.9401 136.41 33.96 136.45 33.99 136.47C34.02 136.49 34.07 136.48 34.09 136.45C34.67 135.54 35.23 134.62 35.75 133.68C36.01 133.21 36.25 132.74 36.48 132.26C36.51 132.28 36.53 132.31 36.56 132.33C37.14 132.84 37.92 133.36 38.97 133.81C40.05 134.27 41.24 134.44 42.36 134.44C42.96 134.44 43.54 134.39 44.08 134.31C43.61 135.15 43.0901 135.98 42.5701 136.78C41.0301 139 39.12 141.51 36.36 142.04C35.97 142.12 35.59 142.12 35.23 142.06C35.11 142.04 34.99 142.01 34.87 141.98C34.76 141.95 34.64 141.9 34.53 141.86C34.11 141.67 33.74 141.39 33.43 141.01C32.49 139.79 31.9501 138.22 31.5701 136.73C31.5201 136.49 31.48 136.25 31.44 136C31.43 135.91 31.4 135.82 31.39 135.73C31.24 134.67 31.23 133.58 31.34 132.51C31.39 132.06 31.46 131.6 31.59 131.16C31.65 130.94 31.7201 130.72 31.8201 130.51C32.0901 129.91 32.54 129.44 33.14 129.19C33.68 128.98 34.32 128.86 34.9 128.99C34.95 129 35.01 129 35.06 129.02C35.14 129.05 35.22 129.09 35.31 129.13V129.17C35.26 129.26 35.22 129.35 35.2 129.42C35.1 129.69 35.0601 129.88 35.0701 130.02C35.0801 130.15 35.13 130.34 35.22 130.57C35.26 130.67 35.31 130.77 35.36 130.88C35.4 130.96 35.45 131.05 35.51 131.14V131.11ZM36.42 126.84C36.06 127.55 35.77 128.11 35.56 128.57C35.47 128.52 35.38 128.47 35.28 128.43C33.73 127.88 31.7801 128.61 31.0701 130.12C30.7101 130.83 30.55 131.6 30.43 132.37C30.29 133.36 30.27 134.36 30.35 135.35C26.7901 134.53 25.65 129.58 27.78 126.74C29.13 124.87 31.57 124 33.83 124.15C34.89 124.2 35.86 124.64 36.61 125.33C36.71 125.42 36.82 125.52 36.92 125.62C36.95 125.65 36.97 125.68 36.99 125.71V125.75C36.99 125.75 36.92 125.86 36.89 125.93C36.78 126.15 36.62 126.46 36.45 126.81L36.43 126.85H36.42V126.84ZM32.38 92.99C32.77 91.95 33.25 90.83 33.69 89.81C33.74 89.68 33.83 89.51 33.91 89.34C33.94 89.36 33.96 89.38 33.98 89.4C35.25 90.37 36.5401 91.31 37.8201 92.25C39.1001 93.19 40.37 94.13 41.58 95.13C42.71 96.07 43.81 97.05 44.7 98.15C44.21 99.38 43.6501 100.58 42.9901 101.71C42.4301 102.68 41.79 103.6 41 104.39C39.22 106.06 36.59 107.29 34.16 106.53C32.11 105.87 30.94 103.78 30.66 101.7C30.25 98.71 31.38 95.78 32.38 92.99ZM45.84 104.93C46.27 104.22 46.6 103.43 46.79 102.61C46.83 102.4 46.88 102.2 46.91 101.99C46.94 101.78 46.95 101.57 46.98 101.36C47 101.15 46.99 100.94 47 100.72V100.56C47 100.5 47.0001 100.44 46.9901 100.38C46.9801 100.26 46.97 100.14 46.94 100.03C46.75 99.1 46.28 98.36 45.78 97.68C45.27 97.01 44.7 96.42 44.11 95.86C43.52 95.3 42.91 94.77 42.28 94.26C41.03 93.25 39.74 92.31 38.44 91.38C37.15 90.45 35.8401 89.55 34.5701 88.61C33.3001 87.68 32.0601 86.7 30.85 85.68C29 84.12 27.21 82.48 25.47 80.79L25.29 80.61C25.23 80.55 25.17 80.49 25.1 80.43C24.69 80.03 24.29 79.63 23.88 79.23C23.88 79.23 23.83 79.21 23.81 79.2C23.87 78.92 23.98 78.66 24.14 78.41C24.37 78.04 24.7 77.72 25.06 77.46C25.16 77.38 25.27 77.31 25.38 77.24C25.56 77.13 25.75 77.04 25.94 76.95C26.14 76.86 26.34 76.79 26.55 76.72C26.69 76.68 26.83 76.62 26.97 76.6C27.44 76.51 27.92 76.5 28.35 76.6C28.35 76.6 28.35 76.62 28.37 76.63C28.71 76.95 29.06 77.27 29.4 77.58C29.45 77.63 29.51 77.68 29.56 77.73L29.58 77.75C29.64 77.8 29.7 77.86 29.75 77.91C29.91 78.05 30.06 78.2 30.22 78.35C30.63 78.73 31.0501 79.1 31.4601 79.47C31.9801 79.94 32.5 80.41 33.03 80.87C35.8 83.29 38.56 85.71 41.48 87.94C42.01 88.55 42.6 89.13 43.23 89.67L43.48 89.42L43.8501 89.05L43.87 89.03C43.87 89.03 43.91 89.03 43.97 89.07C43.05 88.34 42.19 87.53 41.45 86.63C39.96 84.86 39.09 82.67 38.9 80.41C38.88 80.13 38.8501 79.85 38.8501 79.57C38.8501 79.44 38.86 79.32 38.87 79.19C38.89 78.5 38.9501 77.82 39.1001 77.14L39.19 76.68C39.19 76.49 39.42 76.05 39.12 75.99C39.01 75.98 38.92 76.05 38.91 76.16C38.87 76.39 38.76 76.82 38.7 77.06C38.52 77.78 38.42 78.48 38.37 79.18C38.37 79.31 38.3601 79.44 38.3501 79.57V80.41C38.4301 82.47 39.07 84.39 40.14 86.13C39.5 85.59 38.8701 85.04 38.2401 84.49C37.5801 83.9 36.93 83.3 36.27 82.71L36.3 82.62L36.43 82.22L36.69 81.42C36.81 81.06 36.92 80.69 37.04 80.32C37.13 80.05 37.21 79.78 37.29 79.5C37.33 79.37 37.37 79.25 37.41 79.12C37.67 78.27 37.93 77.41 38.18 76.59C38.84 74.46 39.3401 72.27 40.0701 70.16C41.3801 66.29 43.49 62.91 46.68 60.75C46.81 60.66 46.94 60.57 47.08 60.48C48.21 59.77 49.4701 59.21 50.8801 58.83C53.0101 58.2 55.21 58.06 57.43 57.86C58.55 57.75 59.71 57.62 60.83 57.28C61.94 56.95 62.99 56.51 64.03 56.06L65.5701 55.38C66.2901 55.08 67.04 54.7 67.78 54.59C67.89 54.59 67.95 54.59 67.97 54.61C68.16 54.72 68.17 55.01 68.19 55.3C68.24 56.65 67.43 57.79 66.58 58.77C66.38 58.99 66.58 59.38 66.89 59.33C67.8 59.2 68.6901 59.07 69.6001 58.84C70.0001 58.73 70.37 58.6 70.73 58.5C70.78 58.5 70.8301 58.47 70.8801 58.46C71.0401 58.43 71.1901 58.4 71.3201 58.42C71.4101 58.42 71.4901 58.46 71.5701 58.53C71.8601 58.88 71.76 59.39 71.62 59.86C71.26 60.87 70.53 61.74 69.75 62.48C69.73 62.5 69.71 62.51 69.69 62.53C69.55 62.67 69.4 62.8 69.25 62.93C69.21 62.96 69.19 63 69.17 63.04C69.13 63.16 69.21 63.29 69.34 63.32C69.95 63.52 70.4501 63.94 70.8501 64.45C70.9301 64.56 71.02 64.66 71.09 64.77C71.26 65.02 71.41 65.29 71.54 65.55V65.57H71.36C71.17 65.6 70.99 65.64 70.81 65.69C70.6 65.74 70.39 65.8 70.19 65.86C68.92 66.25 67.74 66.88 66.67 67.66C66.09 66.95 65.06 66.95 64.23 67.19C64.19 66.97 64.15 66.74 64.09 66.52C63.96 65.99 63.77 65.48 63.53 64.98C63.04 63.99 62.3101 63.11 61.3801 62.48C60.9201 62.16 60.4001 61.92 59.8501 61.77C59.3101 61.61 58.74 61.55 58.19 61.55C57.64 61.55 57.09 61.62 56.56 61.72C56.29 61.77 56.0301 61.83 55.7701 61.9C55.5101 61.98 55.2401 62.04 54.9901 62.13C53.9601 62.48 53 62.99 52.11 63.57C51.57 63.92 51.06 64.31 50.56 64.7C50.51 64.74 50.47 64.78 50.42 64.81C50.14 65.04 49.86 65.26 49.58 65.5C48.79 66.2 48.0201 66.91 47.2701 67.65C47.1901 67.73 47.18 67.86 47.26 67.95C47.34 68.04 47.4801 68.05 47.5701 67.97C49.1501 66.6 50.73 65.23 52.47 64.14C52.9 63.87 53.35 63.62 53.81 63.4C54.27 63.19 54.74 62.99 55.22 62.84C55.46 62.75 55.7 62.7 55.95 62.63C56.2 62.57 56.45 62.52 56.7 62.47C57.2 62.38 57.7 62.33 58.19 62.32C59.18 62.3 60.13 62.57 60.94 63.11C61.75 63.64 62.42 64.41 62.89 65.28C63.35 66.16 63.6501 67.14 63.7701 68.15C63.8301 68.65 63.85 69.16 63.81 69.67C63.77 70.18 63.6801 70.68 63.5201 71.17C63.5001 71.24 63.5201 71.31 63.6001 71.34C63.6701 71.37 63.76 71.34 63.79 71.27C64.02 70.78 64.16 70.26 64.25 69.72C64.34 69.19 64.37 68.64 64.34 68.1C64.34 67.98 64.32 67.86 64.3 67.74C64.67 67.62 65.04 67.56 65.4 67.59C65.75 67.62 66.09 67.79 66.28 68.08C66.28 68.14 66.3 68.19 66.33 68.24C66.39 68.73 66.3901 69.22 66.3501 69.71C66.2401 71.07 65.79 72.41 65.18 73.63V73.65C65.15 73.75 65.26 73.82 65.34 73.77C65.35 73.77 65.3701 73.76 65.3801 73.74C66.1001 72.49 66.6601 71.1 66.8501 69.66C66.8701 69.52 66.88 69.38 66.89 69.24C66.92 68.92 66.92 68.59 66.91 68.27C67.65 67.68 68.4801 67.18 69.3501 66.78C69.5001 66.71 69.65 66.64 69.8 66.58C70.56 66.23 71.3101 66.05 71.9901 66.05C73.4401 66.05 74.6301 66.85 75.2101 68.64C75.4501 69.33 75.57 70.05 75.66 70.78C75.71 71.22 75.7501 71.66 75.7701 72.1C75.7701 72.16 75.8101 72.2 75.8501 72.23C75.8801 72.25 75.91 72.27 75.95 72.27C76.04 72.27 76.12 72.19 76.12 72.09C76.1 71.41 76.0601 70.72 75.9601 70.04C76.1601 70.18 76.36 70.33 76.62 70.56C77.6 71.43 77.93 72.91 77.68 75.54C77.66 75.75 77.65 75.94 77.62 76.16C77.59 76.41 77.55 76.69 77.51 76.96C77.48 77.14 77.46 77.31 77.43 77.51C76.81 81.43 76.25 83.54 73.12 88.76C69.99 93.97 62.37 97.3 61.93 97.48C61.31 96.79 60.65 96.13 59.91 95.57C59.86 95.54 59.8 95.54 59.76 95.59C59.75 95.6 59.7501 95.62 59.7401 95.64C59.7401 95.64 59.7401 95.72 59.7701 95.74C60.4901 96.36 61.1301 97.08 61.7101 97.83C61.7101 97.85 61.71 97.87 61.72 97.89C61.75 97.96 61.8101 98.01 61.8801 98.04C61.9101 98.08 61.94 98.11 61.97 98.15C62.62 99.02 63.18 99.95 63.66 100.92C64.15 101.89 64.53 102.9 64.83 103.94C65.04 104.63 65.19 105.34 65.31 106.05C65.15 105.94 64.97 105.82 64.78 105.7C62.68 104.4 60.77 104.39 60.69 104.39C60.57 104.39 60.45 104.46 60.39 104.57L58.95 107.35L57.45 104.48C57.4 104.39 57.31 104.32 57.2 104.3C57.13 104.29 55.41 104.03 53.26 104.12C51.2 104.2 48.2501 104.49 45.5701 105.32C45.6601 105.19 45.75 105.06 45.83 104.93H45.84ZM21.58 80.15C20.68 79.65 20.04 78.8 20.06 77.76C20.08 76.92 20.3 76.09 20.68 75.34C20.79 75.11 20.92 74.89 21.06 74.68C21.15 74.55 21.24 74.43 21.34 74.31C21.5 74.11 21.68 73.91 21.87 73.73C23.24 72.46 25.13 71.57 27.02 71.55H27.18C27.27 71.55 27.36 71.55 27.45 71.56C27.72 71.59 27.99 71.63 28.26 71.69C29.08 71.9 29.81 72.36 30.19 73.18C30.63 74.11 30.56 75.13 30.22 76.07C30.13 76.3 30.03 76.53 29.92 76.74C29.81 76.63 29.7 76.53 29.59 76.42C29.41 76.25 29.22 76.08 29.04 75.9C29.03 75.89 29.01 75.89 29 75.87C28.98 75.85 28.95 75.84 28.93 75.82C28.83 75.76 28.73 75.74 28.63 75.76C27.99 75.69 27.38 75.78 26.81 75.94C26.5 76.03 26.19 76.14 25.91 76.29C25.85 76.32 25.8 76.36 25.74 76.39C25.58 76.47 25.42 76.56 25.27 76.66C25.21 76.7 25.15 76.73 25.09 76.77C24.9 76.9 24.72 77.05 24.54 77.21C24.24 77.48 23.97 77.79 23.75 78.14C23.4 78.69 23.25 79.38 23.36 80.04C23.38 80.16 23.5 80.24 23.62 80.22C23.74 80.2 23.82 80.08 23.8 79.96C23.79 79.88 23.79 79.8 23.78 79.72C24.02 79.99 24.27 80.26 24.51 80.53C23.52 80.71 22.51 80.63 21.59 80.12V80.15H21.58ZM11.8 72.04C11.25 71.84 10.71 71.62 10.24 71.32C10.01 71.17 9.79004 71 9.60004 70.8C9.51004 70.7 9.42004 70.6 9.35004 70.49C9.28004 70.39 9.23005 70.28 9.19005 70.16C9.09005 69.86 9.07005 69.52 9.11005 69.2C10.02 70.27 11.06 71.26 12.15 72.14C12.03 72.1 11.91 72.07 11.79 72.03H11.8V72.04ZM7.29005 64.82C7.02005 64.07 6.77004 63.22 6.70004 62.39C6.67004 62.01 6.68004 61.63 6.75004 61.26C6.80004 61.01 6.88004 60.77 6.99004 60.55C7.04004 60.44 7.08004 60.34 7.14004 60.24C7.14004 60.47 7.18004 60.7 7.21004 60.93C7.30004 61.5 7.45004 62.06 7.64004 62.61C7.85004 63.2 8.10005 63.77 8.37005 64.31C8.67005 64.89 9.01004 65.45 9.39004 65.99C9.77004 66.53 10.18 67.04 10.62 67.52C11.5 68.49 12.5 69.3 13.14 70.37C13.26 70.57 13.56 70.4 13.47 70.2C13.21 69.68 12.86 69.23 12.5 68.8C12.02 68.24 11.51 67.71 11.05 67.15C10.58 66.59 10.14 65.98 9.73005 65.33C9.22005 64.52 8.78004 63.67 8.46004 62.77C8.19004 62.03 8.01005 61.27 7.93005 60.49C7.90005 60.18 7.88004 59.86 7.89004 59.55C7.89004 57.58 10.25 55.71 11.97 57.11C12.84 57.96 13.09 59.21 13.42 60.36C13.9 62.25 14.42 64.14 15.3 65.92C15.5 66.31 15.85 66.76 16.34 66.75C17.02 66.78 17.55 66.07 17.34 65.43C16.73 63.15 16.16 60.6 17.29 58.4C17.98 56.76 20.1 56.17 21.34 57.52C21.72 57.95 21.85 58.54 21.96 59.09C22.35 61 21.79 62.97 22.4 64.89C23.07 66.95 25.68 67.33 27.12 68.35C28.04 68.96 28.55 69.95 28.14 70.95C26.47 70.59 24.74 71.03 23.25 71.8C22.47 72.21 21.74 72.74 21.12 73.39C20.96 73.56 20.8 73.74 20.66 73.93C20.57 74.05 20.48 74.18 20.4 74.3C20.26 74.51 20.13 74.73 20.01 74.96C19.94 75.1 19.88 75.24 19.82 75.39C18.04 75.14 16.39 74.29 14.87 73.26C11.73 71.11 8.67005 68.44 7.30005 64.8V64.82H7.29005ZM74.2701 122.22C74.3001 122.9 74.25 123.59 74.14 124.27C74.02 124.95 73.86 125.63 73.65 126.3C73.56 126.58 73.4601 126.86 73.3501 127.14C73.3001 127.27 73.24 127.41 73.19 127.54C73.14 127.67 73.0801 127.8 73.0201 127.93C72.9701 128.04 72.9301 128.15 72.8801 128.25C72.5901 128.89 72.26 129.52 71.9 130.11C71.68 130.16 71.45 130.22 71.23 130.26C70.47 130.39 69.69 130.47 68.91 130.48C68.15 130.5 67.39 130.4 66.67 130.17C66.47 130.11 66.2701 130.03 66.0701 129.95C66.3701 129.51 66.66 129.07 66.94 128.62C67.21 128.18 67.46 127.72 67.7 127.25C67.73 127.18 67.77 127.12 67.8 127.05C67.83 126.98 67.86 126.9 67.89 126.83C67.95 126.7 68 126.56 68.05 126.43C68.08 126.35 68.11 126.28 68.14 126.21C68.18 126.05 68.23 125.91 68.23 125.73V125.47C68.23 125.38 68.19 125.29 68.15 125.2C68.12 125.11 68.05 125.03 68 124.95C67.93 124.89 67.86 124.81 67.78 124.77C67.73 124.74 67.67 124.72 67.62 124.69C67.57 124.67 67.53 124.65 67.48 124.64C67.42 124.62 67.35 124.6 67.29 124.59C67.17 124.57 67.06 124.57 66.95 124.56H66.6001C66.6001 124.56 66.6 124.46 66.61 124.41C66.62 124.28 66.64 124.15 66.66 124.01C66.7 123.74 66.74 123.48 66.79 123.21C66.89 122.68 67 122.15 67.12 121.62C67.25 121.1 67.4 120.59 67.58 120.09C67.67 119.84 67.78 119.6 67.89 119.36C67.95 119.24 68.0101 119.13 68.0701 119.02C68.1101 118.96 68.14 118.89 68.18 118.83H69.2101C69.5101 118.84 69.82 118.86 70.12 118.9C70.81 118.98 71.4801 119.12 72.1001 119.37C72.7201 119.62 73.28 119.97 73.66 120.45C74.04 120.94 74.24 121.54 74.26 122.2V122.22H74.2701ZM67.7101 126.08C67.6701 126.21 67.61 126.34 67.56 126.47C67.32 126.49 67.08 126.51 66.84 126.55C67.03 126.14 67.2401 125.65 67.4601 125.11C67.6001 125.17 67.7 125.26 67.75 125.38C67.83 125.57 67.79 125.83 67.72 126.09H67.7101V126.08ZM67.97 118.21C67.9 118.22 67.83 118.26 67.78 118.33C67.68 118.47 67.61 118.59 67.54 118.72C67.47 118.85 67.4101 118.98 67.3501 119.1C67.2301 119.36 67.13 119.62 67.04 119.89C66.86 120.42 66.7201 120.96 66.6001 121.5C66.4901 122.04 66.39 122.58 66.31 123.12C66.27 123.39 66.23 123.67 66.2 123.94C66.19 124.08 66.17 124.22 66.16 124.36C66.16 124.5 66.14 124.63 66.15 124.8V124.82C66.17 124.94 66.28 125.02 66.4 125.01C66.52 124.99 66.6501 124.98 66.7701 124.98C66.4901 125.66 66.23 126.23 66.01 126.68C65.94 126.83 65.87 126.97 65.8 127.1C65.78 127.14 65.7601 127.17 65.7401 127.21V127.11C65.7301 126.98 65.7201 126.86 65.7101 126.73C65.7101 126.62 65.69 126.51 65.69 126.41C65.66 125.88 65.65 125.35 65.66 124.82C65.68 123.76 65.78 122.7 66 121.67C66.22 120.64 66.54 119.63 67.04 118.73C67.46 117.95 68.02 117.27 68.7 116.71C68.7 116.89 68.68 117.07 68.66 117.25C68.63 117.56 68.58 117.86 68.53 118.17C68.35 118.18 68.16 118.19 67.97 118.21Z" />
    <path fill="black" d="M56.5701 93.9799C56.6401 94.1099 56.7601 94.2099 56.9201 94.2399C57.1101 94.2799 57.2901 94.1999 57.4101 94.0599C59.0001 94.1999 60.6001 94.2499 62.2001 94.2399C62.2501 94.4199 62.4001 94.5699 62.6001 94.5999C62.8601 94.6499 63.1001 94.4799 63.1701 94.2299C63.8101 94.2299 64.4401 94.2099 65.0801 94.1999L65.5801 94.1699C65.8201 94.1199 66.2501 94.2099 66.3601 93.8899C66.4601 93.5399 66.5701 93.1599 66.6901 92.7599C68.1001 92.1799 69.1401 91.4699 69.9601 90.5299C70.4601 90.6499 70.9401 90.7599 71.2201 90.8199C71.3601 90.8499 71.5001 90.7899 71.5701 90.6599C73.9601 85.7999 75.1201 80.4199 75.4301 75.0199C75.4601 74.4599 75.4901 73.8999 75.5001 73.3499C75.5101 72.8699 75.5201 72.3899 75.5201 71.9199V71.5499C75.5201 71.4399 75.4301 71.3499 75.3201 71.3499C75.2801 71.3499 75.2401 71.3699 75.2101 71.3999C75.1601 71.4399 75.1201 71.4899 75.1201 71.5599C75.1401 74.7899 74.7801 78.0399 74.1301 81.2099C73.4901 84.2899 72.5101 87.3199 71.0901 90.1299C70.3501 90.0099 69.0101 89.7999 68.4801 89.7099C68.3301 89.6799 67.9201 89.5999 67.7701 89.5699C67.7401 89.5699 67.7001 89.5499 67.6601 89.5399C67.7401 89.2899 67.8101 89.0499 67.8801 88.8199C67.9401 88.6499 67.6801 88.5699 67.6301 88.7299C67.3001 89.5499 66.9901 90.3799 66.6701 91.1999L65.8101 93.4699C65.7201 93.4699 65.6301 93.4899 65.5401 93.4899C64.8001 93.5399 64.0501 93.5499 63.3101 93.5599L63.9701 89.8099C63.9901 89.7099 63.9301 89.6099 63.8301 89.5799C63.7201 89.5399 63.6001 89.6099 63.5701 89.7099L62.3301 93.5599C61.6101 93.5599 60.9001 93.5399 60.1801 93.5199C59.3201 93.4999 58.4701 93.4599 57.6101 93.3899L58.3801 89.4499C58.4001 89.3499 58.3401 89.2499 58.2401 89.2099C58.1301 89.1699 58.0101 89.2299 57.9801 89.3399L56.6301 93.2899C55.8801 93.2099 55.1201 93.1099 54.3801 92.9699C53.2201 92.7299 52.0201 92.4999 50.9501 91.9899L51.6601 86.4399C51.6701 86.3499 51.6101 86.2699 51.5201 86.2499C51.4301 86.2299 51.3401 86.2899 51.3201 86.3799L51.1701 87.1999L43.5301 85.1099C43.4801 84.0399 43.5801 82.9099 43.6301 81.8399C43.6301 81.7199 43.5501 81.6399 43.4501 81.6299C43.4001 81.6299 43.3501 81.6299 43.3101 81.6599C43.2701 81.6899 43.2401 81.7299 43.2301 81.7999C43.1201 82.7099 42.9701 83.5799 42.9001 84.4799C42.4401 83.8999 41.8001 83.0199 41.3601 82.1599C41.3801 81.8699 41.4501 80.9299 41.5801 79.5499C41.8701 76.4499 42.4601 71.1699 43.4801 66.2499L45.4401 65.5399C45.2201 66.6199 45.0301 67.6899 44.8501 68.7599C44.6401 70.0299 44.4601 71.3099 44.2901 72.5899C44.1201 73.8699 43.9701 75.1499 43.8301 76.4299L43.5201 79.4299L43.4301 80.2699C43.4301 80.2699 43.4301 80.2999 43.4401 80.3099C43.4501 80.3599 43.4801 80.3999 43.5301 80.4199C43.5401 80.4199 43.5501 80.4399 43.5701 80.4399C43.6601 80.4499 43.7401 80.3899 43.7501 80.2999L43.8601 79.3999L44.2301 76.4699C44.4001 75.1999 44.5801 73.9199 44.7701 72.6499C44.9701 71.3799 45.1801 70.1099 45.4101 68.8499C45.6301 67.6899 45.8601 66.5199 46.1301 65.3699L48.4101 65.6099C48.4901 65.6099 48.5601 65.5699 48.5801 65.4899C48.6001 65.4099 48.5501 65.3399 48.4901 65.3099L48.4701 65.2899L48.3701 65.2699L45.9301 64.6699H45.8801C45.8801 64.6699 45.8001 64.6699 45.7601 64.6899L45.6901 64.7199L43.0701 65.6699C42.9601 65.7099 42.8801 65.7999 42.8601 65.9099C41.8001 70.9599 41.1901 76.4099 40.9001 79.5499L40.8801 79.7599V79.8699C40.7401 81.2899 40.6901 82.1599 40.6801 82.1899C40.6801 82.2499 40.6801 82.3099 40.7101 82.3599C41.4701 83.8999 42.8501 85.4699 42.9301 85.5599H42.9401C42.9401 85.5599 43.0301 85.6399 43.0801 85.6599C43.0801 85.6599 43.0901 85.6599 43.1001 85.6699L49.1201 87.1199L48.6201 90.8199C48.6101 90.9299 48.6501 91.0499 48.7401 91.1199L50.3401 92.3999C50.3401 92.3999 50.3601 92.4399 50.3801 92.4499C51.5501 93.0999 52.9201 93.3299 54.2101 93.6099C54.9801 93.7499 55.7601 93.8499 56.5401 93.9399L56.5701 93.9799ZM49.7801 87.3299L51.0801 87.6399L50.3401 91.5799L49.3201 90.7699L49.7801 87.3299ZM66.9401 91.9299C67.1401 91.2599 67.3501 90.5799 67.5401 89.9499C67.5801 89.9599 67.6301 89.9799 67.6701 89.9899C67.8201 90.0399 68.2301 90.1399 68.3801 90.1799C68.5701 90.2299 68.8701 90.2999 69.2001 90.3799C68.6001 90.9899 67.8601 91.4999 66.9401 91.9299Z" />
    <path fill="black" d="M55.5001 86.24C57.8301 86.8 60.6701 83.36 61.8401 78.54C62.3301 76.5 62.4401 74.54 62.2301 72.91C61.9401 70.71 61.0601 69.12 59.7201 68.79C57.3801 68.23 54.5501 71.67 53.3801 76.49C53.3001 76.8 53.2401 77.11 53.1801 77.42C52.3401 81.86 53.3101 85.71 55.5001 86.24Z" />
    <path fill="black" d="M67.07 87.7399C69.09 88.2299 71.61 84.9899 72.69 80.4999C73.77 76.0099 73.01 71.9799 70.99 71.4899C68.97 70.9999 66.45 74.2399 65.37 78.7299C64.29 83.2199 65.05 87.2499 67.07 87.7399Z" />
    <path fill="black" d="M61.62 113.77C61.81 113.62 61.86 113.34 61.72 113.13C61.5 112.79 61.03 112.11 60.48 111.43C60.88 110.99 61.27 110.53 61.54 110.21C61.7 110.02 61.6901 109.73 61.5201 109.55L60.69 108.64C60.59 108.53 60.45 108.47 60.3 108.47C60.15 108.47 60.02 108.54 59.92 108.65C59.68 108.94 59.32 109.36 58.93 109.79C58.23 109.11 57.51 108.43 57.08 108.03C56.9 107.86 56.61 107.86 56.43 108.03L55.45 108.96C55.35 109.05 55.3 109.19 55.3 109.32C55.3 109.46 55.37 109.59 55.47 109.67C55.8 109.95 56.46 110.52 57.36 111.36C56.73 111.96 56.04 112.63 55.69 112.97C55.59 113.07 55.53 113.21 55.54 113.36C55.54 113.5 55.62 113.64 55.73 113.73L56.5701 114.4C56.6601 114.47 56.77 114.51 56.89 114.51C57.01 114.51 57.1201 114.47 57.2101 114.39C57.5801 114.09 58.32 113.47 58.95 112.92C59.52 113.53 59.93 114.02 60.15 114.31C60.23 114.41 60.34 114.48 60.47 114.49H60.53C60.64 114.49 60.74 114.45 60.83 114.39L61.6301 113.76H61.62V113.77ZM60.4901 114.29C60.4201 114.29 60.3601 114.25 60.3201 114.19C60.1001 113.9 59.69 113.4 59.12 112.79C59.31 112.63 59.48 112.47 59.62 112.34C59.83 112.14 60.08 111.88 60.33 111.61C60.86 112.27 61.32 112.93 61.54 113.26C61.61 113.37 61.59 113.52 61.48 113.6L60.68 114.23C60.68 114.23 60.5601 114.29 60.4901 114.28V114.29ZM56.7101 114.24L55.87 113.57C55.81 113.52 55.77 113.44 55.76 113.36C55.76 113.28 55.7901 113.2 55.8501 113.14C56.1901 112.8 56.9 112.12 57.53 111.52L57.61 111.44L57.69 111.36C57.89 111.17 58.09 110.98 58.25 110.83C58.48 110.62 58.7201 110.37 58.9601 110.11L59.04 110.03L59.12 109.95C59.51 109.52 59.88 109.09 60.12 108.8C60.17 108.74 60.25 108.7 60.33 108.7C60.41 108.7 60.49 108.73 60.54 108.79L61.37 109.7C61.47 109.8 61.47 109.96 61.37 110.07C61.16 110.33 60.76 110.8 60.34 111.26C60.31 111.29 60.2901 111.32 60.2701 111.34L60.19 111.42C59.94 111.7 59.68 111.96 59.47 112.16C59.33 112.29 59.1501 112.44 58.9601 112.61L58.8801 112.68L58.8 112.75C58.18 113.29 57.4401 113.91 57.0701 114.21C56.9701 114.3 56.8201 114.3 56.7101 114.21V114.24ZM56.94 108.21C57.37 108.61 58.1 109.3 58.79 109.97C58.55 110.23 58.31 110.47 58.09 110.68C57.92 110.83 57.7301 111.02 57.5201 111.22C56.6201 110.38 55.95 109.8 55.61 109.52C55.55 109.47 55.5201 109.4 55.5201 109.33C55.5201 109.26 55.5501 109.19 55.6001 109.14L56.58 108.21C56.58 108.21 56.69 108.14 56.76 108.14C56.83 108.14 56.88 108.16 56.93 108.21H56.94Z" />
    <path fill="black" d="M48.36 91.72C47.4 91.39 46.51 90.82 45.65 90.28C45.39 90.11 45.14 89.93 44.89 89.75L46.67 91.17L48.02 92.02C48.1 92.05 48.19 92.08 48.28 92.11C48.38 92.14 48.49 92.08 48.52 91.98C48.56 91.87 48.48 91.75 48.37 91.72H48.36Z" />
    <path fill="black" d="M47.4901 91.82C47.6401 91.89 47.7801 91.94 47.9301 92L47.3201 91.74C47.3801 91.77 47.4301 91.8 47.4801 91.82H47.4901Z" />
    <path fill="black" d="M60.3001 85.15L59.7301 85.51C59.4701 85.68 59.3501 85.9499 59.3601 86.2099C59.3601 86.5399 59.5801 86.8599 59.9501 86.9199L63.5901 87.5299C63.9101 87.5799 64.2001 87.4199 64.3601 87.1699C64.4801 86.9699 64.5301 86.72 64.4401 86.48L64.2401 85.9199C63.6701 84.3199 62.0701 84 60.2901 85.15H60.3001Z" />
    <path fill="black" d="M61.4301 83.78C62.3701 83.58 63.3501 83.7 64.1501 84.27C64.2801 84.38 64.4801 84.23 64.3901 84.08C63.7901 83.02 62.2801 82.86 61.3101 83.49C61.1601 83.58 61.2501 83.81 61.4201 83.78H61.4301Z" />
</svg>